<mxfile host="app.diagrams.net" modified="2024-03-29T16:58:05.236Z" agent="Mozilla/5.0 (Macintosh; Intel Mac OS X 10_15_7) AppleWebKit/605.1.15 (KHTML, like Gecko) Version/15.2 Safari/605.1.15" etag="rFP-qHbWCWIq18gkNgD8" version="23.1.1" type="github">
  <diagram name="Page-1" id="cWVK-FY8BVFzfyo3xwjw">
    <mxGraphModel dx="1306" dy="757" grid="1" gridSize="10" guides="1" tooltips="1" connect="1" arrows="1" fold="1" page="1" pageScale="1" pageWidth="827" pageHeight="1169" math="1" shadow="0">
      <root>
        <mxCell id="0" />
        <mxCell id="1" parent="0" />
        <mxCell id="EHeoqyNh7yzG5rau29Q3-3" value="" style="shape=image;imageAspect=0;aspect=fixed;verticalLabelPosition=bottom;verticalAlign=top;image=data:image/png,iVBORw0KGgoAAAANSUhEUgAAAoAAAAHgCAIAAAC6s0uzAAAACXBIWXMAAA7DAAAOwwHHb6hkAAAgAElEQVR4nOzdeWBTVfo38Cd7m6bploY0tKWUUvZSVlkKIjKIKC6jOOqoo44yuOsoo6/juI06jo7LT2RQx1EH0UFEHRUVUREREDeWUlqobUkX0jRN0jYNabPdvH8ciDFdSNomN8v381d7b3Luk+XeJ+fcswgOHDhAAAAAEFliIiopKeE7DAAAgARSXl4u5DsGAACARIQEDAAAwAMkYAAAAB4gAQMAAPAACRgAAIAHSMAAAAA8QAIGAADgARIwAAAAD5CAAQAAeIAEDAAAwAMkYAAAAB4gAQMAAPAACTi8BAKBQCDw3/LCCy8IBIK8vLxjx47xFYP/dkYqlebl5T366KORDyP45/YUsQB4lJOTIxAIGhsb2b9yuVwgECQlJbF/6+vrBQJBdnZ2/4UE+drD8Rb1U+bHH388b968pKSkpKSk0tLSp59+emgPfUpffvnlaaedJpVK5XL5GWec0fMBzz//fGlpKXvA0qVLv/322whHyKPouT7E6JkblAMHDnghbNib7Pt3/fr1RKTRaHQ6HV8xBGwPcOGFF0YgjN27dy9YsCDU5/bU/7MCjhLMU4IRavCDdNFFFxHRe++95/V6Dx06FHDmvvPOO0R00UUX9V9IkK+9n4cN+FX3VebatWt7fqAPPvjgAA4xYFqt1nfoSy+9NGDv5ZdfHhCeRCLZvn17JCMMt34+1ui5PgzVmRttDhw4gAQcXv5fHXatVKvVR44c4SuGvrZ7PJ7t27fn5+cT0Zo1a/gKaageP5hn8VVsX+6//34iuu+++7xe75tvvklEqampRLRu3Trf3nvvvXdIjtXPSxvwq+7riRkZGUS0bds2j8fj8XjYS0tLSxvAIQaMxWYymbxer8Ph8N/FzlatVrtt2zav16vT6WbNmkVEU6ZMiWSE4RbkJx7l14cYhQQcdr5v0nvvvUdEGRkZPd/w9evXjx49WiKRTJo06cMPPwx47muvvZaamjpnzhzflg8//HDSpEkSiWTatGn+pfVfTj+x+Xz00UdEtHDhwiDL7DWSQ4cOlZWVSSSS5OTkBQsWNDQ0BBwu4Df16NGjiaipqcnr9er1eiIqLCw8Zaj+ej1iwFECCmF/v/zyyyqVqqCgoKqqav369ampqfn5+Tt37mSP0el0CxYsSE5OZi9w9+7dvRbbz7vkr9fS+nm7fNg3h9U8rr32WiJiNbOrr77a6/VeeOGFdLJ+fMrPy/fvmjVr2Avfs2dPz7eloaFh1qxZMpmsrKzsp59+GsCrXrNmjVqt1mg0r7zySl+fXUpKChE9+eSTXV1dPfcGPCvUzy7Axo0bJ0yYIJFIxowZ43uven1RPueffz4Rbdiwwbflp59+Wrhwoe+D66vYICP0PUatVqelpQVktf5LHtgVoOez+n8Hem7k5frQM5K+DnrKUynaIAGHHfvqfPLJJxKJhIhuueWWgAew77Q/3xnuv5Fdf6mHadOmBVlOX7H5b3E4HESUkpISUmwBkUyYMMF/+8yZMwMOF/BEllRYfW7dunVEdN111/Uaak/9HLHnI/2fErB38uTJIpGI/T1p0iT2mGnTpvk/ZsyYMb0W28+75K/X0vp5u3zYjxKVSuX1eidPnkxE3333HZ2simk0GiJidzSC/A5s2LDB94Dc3Nyeb8u4ceN8D5g/f36or5p9iD2fEuDuu+9mu1JTU1etWhVwuQx4Vs8gfXr97Px98sknAU9hldr+I2TNDC6Xq2eB/RcbZIQ936KNGzeGWjKFcgXo+az+34GeG3m5PgRE0s9BT3kqRRsk4LBjX4Xk5OTU1NS0tDSRSFRVVeX/gPnz5xPRJ5984vV6t2/fTkTLly/3f+4dd9zh9Xpra2t9W2666SaPx8MqRjKZLMhy+oqt50aJRBJkmb1Gwq41PX9++h/O/++NGzfSyTtwl156KRG98847vT63p+CP2GsA69evr62tZX+/9tprR44c8X/5PuwxvhcYUGw/71KvAkrrK3h/rLJoMplEIpFarfZ6vRkZGSKRqLOzk327ThmJf8ysKZV9r2655Zaebwv7WD/77DP/woN/1VOmTCGi2267zev13nbbbX19/bxe7/3335+cnMweIBKJbrjhhs7Ozl4PN+DPzuv1LliwgIhWrFjhcrlWrFhBJ39V9DyKP/a59LoryGL7j5BtZ7/I2afgS1GnLHlgV4Ben9XPO9DrLor49SHg334OGsypFFWQgMOOfXWSk5N37NixevVqIgro8iCTyeiXUlNT/Z/r/31iW3q9SJ2ynL5i89/CfuH6rrmnLLPXSFiNViQSzZkz58EHH7RYLD0f4/+3xWKhkzU8tVpNRL6n9BOqv2CO2GsAHo+n1799T/nuu+9WrVrFMkpfV4d+3qUAvZbWV/D+li1bRkTsMs0uN6xn1h133EFEixYtOmUk/kdkjTGszV+n0/V8acePH+/rHQvmVbProF6v93q9DQ0N/X92nZ2djz/+OLsfTCfb1XsebgCfXUCo7BZvwDe8n9jYL4OAG8MhFdt/hOxv9i41NTVRj/Oun5IHdgXo9Vn9vAM9d/FyfQj+ZQZzKkUVJOCwY1+RTz/9lP3LmhDffPNN3wPY1dCfSCTyf27P0nr9N6Ry+tq+bds2ImL3m0Mq0/9fl8v14IMPnnPOOayLqe+OUT8n2KRJk4iINV322smlr5cQ/BH7CaCvv9esWUNE9913X1VVVT/B9/Mu+eurtL6C97dq1So6ebP8ySef9Hq9jzzyCBGx9+2GG244ZSQ9vyqs1Zr9+unrpQ3sVbNLZEdHhzeIBMxYLJbHH3+c+kiN7Lof0mfnb2AJeNGiReTXLOz1equqqhYsWOBr8Ayy2P7/Zu1hoSZgX0g9P9ZTfvpBvmm97uLr+hDkywzmVIoqSMBhF/BN2rdvHxFpNBp2efKevDX40UcfnfK5Pbf4/xtSOb1uP3jwILuJ8swzz4RaZq+HMJlM1KPNzf/vrq4u9huZ1e1YOmFNo0G+hGCO6DtKX2d4X3+z66BOp/v000/7Cb6fd8lfX6X1Fbw/1krPsB9zH374oW+Lr6NQkJ8X+xV4xx13eDyegCbifj7W4F81a+K+9tprvV7vDTfc0Ndnx66SL774IusFzV4Ra2D3nrzOfvLJJx6P56abbgr1s/PHGi39W3R9rVD9fK/YiEGtVsu6TdXW1s6cOZP8GoqDLLb/v6+99lqPx8NaMnyJLfiA/f8d2Nka8LH28ywerw9Bvsy+So5aSMBh1/Obxy5J7A6Z95c9Ypizzjqrr+f287UOqRz/7QFmzpzp63gSfJn+/7Lrr4/vsuL/GF+TI7v1y+4SMb32Iu411FMeMeAo/k8J5u+CggJfmewuLPvZFFBsP++Sv75K6yt4f+z2IRGJRCL26fgqhUS0b9++kD6vl19+2fcAX3+rU36swb9qNoAnQM8X9fDDD/d82Nq1a9nesrKyvgoJ5m9//t8uZseOHf0/hWHt/P4kEomvBhxksf3/7e/9998PNWD/fwd2tgZ8rP56Rkg8XR+CfJnBnEpRBQk47AK+iF6v12KxqFQq8psC5ZVXXhk3bpxIJEpLS7vpppv6uoXZc0vAv8GX47+dEYlE+fn5jz32GLtZFWqZ/v/q9fqLLrqIjbc566yz2L3GgMe88sorGo1GIpGwk+T48ePsxqFEIum132lvl4JTHzHgKP5PCebv3bt3s6EgZ5999k8//UREd955Z89i+3mX/PVVWl/BB2AV6MmTJ/u2sNwpkUj8P7IgP6/3338/Nzd33LhxLLUH03IY0qt++eWX09LStFqtL9n3+qKeeuopNkxFIpHMnDnTv1pTVVU1bdo0kUg0ZswYXwNAz6j6+jvAxo0b2YHGjRvnf5R+nsI888wzkyZNEolEycnJy5Yt8/3WCb7Y/v/esGGDRqNRqVSvvfbaAAIO+HcAZ2vPjzXgYQy/14cgX2aQp1L0OHDggODAgQMlJSUEwKvTTz99x44d55xzzubNm/mOJc6JxWKPx8NO/M2bNy9btkylUrW2tvIdV2Jhcyt6+/5xCXGvvLxczHcMAOR2uzs6OojovPPO4zuW+Ldo0aJPP/2U3QlmLrvsMh7jAUhYWIwB+KdUKhsaGm655ZbrrruO71ji3+uvv3711VenpqbKZDKVSnXLLbc89thjfAeVcGQyWc8RNZBo0AQNAAAQaeXl5agBAwAA8AAJGAAAgAdIwAAAADxAAgYAAOABEjAAAAAP4n8c8Btvv2uz2fiOAgAAEoJWM2zZ2WcF88j4T8A2m+0P11zFdxQAAJAQXnx1XZCPRBM0AAAAD5CAIYxcbg/fIQAARKn4b4KGCLN3O3f8UF2vt9TrzVZbV3HBsKJ89fSJBerMVL5DAwCIIkjAMJSqdS2vvLuzzWr3bTlUoz9Uo/9sd+W5C0rOnDWOx9gAAKIKEjAMmdc/+Gb3/lqO8+ZpMn81Z9yEouHyJGlVXfOmrT/qje0bt/yw/3DjDZcukCdJ+Y4UAIB/SMAwNN7Z+uPOvTVEdOV5s+eUjhIKBWz7hCLthCLtoRr9c+u/qNa1rN2w/dYrzpSIRbwGCwDAP3TCgiGwZWfF1t2VQqHgpsvPKJta5Mu+PhOKtA/dfJ5CLqvWtbzy7i6OwzrkAJDokIBhsKrqmt/ftp+IfnvurJLi3L4eplGl3X7VInmSdG9l/Rub90QwQACAaIQEDIPicnte/2APx3mXzp9UNrWo/wfnaTJXXDJfKBTs3FtzqEYfmQgBAKITEjAMyubt5eZ2W2GuatmCycE8flxhzmVLZxLRG5u/tdkdYY4OACB6IQHDwOmN7V/sqRIKBVeeN7vnfd++zJ9eXJSvNrfb3tn6Y1jDAwCIZkjAMHCvf/CNy+1ZPGeCVp0e0hOv/fVcmVS8e39tta4lTLEBAEQ5JGAYoP2HG+uaTEKh4KyyCaE+NytdcVpJIRFtQiUYABIVEjAM0Obt5UR0yZIZA5tY4/yFpTKpuF5vLq9uGurQAABiABIwDERVXXOjwaJUJJ+y53NfFHLZuQsmE9F7n+/DsGAASEBIwDAQH2zbT0Rnzho7mDmtzpg5JitdoTe2f19xdOhCAwCIDUjAELKquua6JlOGUj7IxRUkYtGSsglEtGXnIVSCASDRIAFDyD7bXSkUChbOGjf4KZ3Lpo5WZ6bqje1HdIYhiQ0AIFYgAUNorLaual0Lx3nnlI4afGlCoeBXc8YT0cc7Dg6+NACAGIIEDKHZubfG5faUFOcq5LIhKXB26Si2SEO93jwkBQIAxAQkYAgBx3l3/FBNRPOmjx6qMiVi0fzpxUS0/bsjQ1UmAED0QwKGEPxYWd9mtWvV6ROLhg9hsWfMHCMUCvaU17VZ7UNYLABANEMChhCw6u/86cXBz/wcDKUieU7pKI7zbttTNYTFAgBEMyRgCJa53Vata5FJxaeVjBzywudOHU1Ee8qPYjwSACQIJGAI1u79tUQ0oWj4wOae7F9hrkqjSrPauvYfbhjywgEAohASMATrcJ2BiGaXFoap/LlTi4hobyUSMAAkBCRgCIrB1FHX1CpPko4rzAnTIaaNzxcKBT9W1lttXWE6BABA9EAChqAcqtFznLd0bN7gZ7/qS1a6YlxhDsd595RjamgAiH9IwBCUnXtriGjy2LywHoUNCP4OCRgAEgASMJyaud1mMHXIk6QlxblhPdCEIq08SdposJjbbWE9EAAA75CA4dS+LT/Kcd6p4/OHdvhvTxKxiI1x+r5CF9YDAQDwDgkYTq2qrpnC3/7MTB0/gogOHG6MwLEAAHiEBAynYLM7ahqMErGoKF8dgcMVFwzLUMp1ejOmpQSA+IYEDKewt7Ke47xF+epwzL/Rq0nFuRznPVjdFJnDAQDwAgkYTuFok4mIJhUP5eoL/ZsxsYCIdvzwU8SOCAAQeUjA0B+O85ZXNxHRpDD3f/ZXlK/OUMobDRajpTNiBwUAiDAkYOhPVV2zze7QqNLUmakRO6hQKCgdm0dE+9EVCwDiF88JuKKiori4WCqVTp06ddeuXcHv/eabbwSC8A6JASKqa2olotKI9H/2xyrcmJEDAOIYzwn4ySefvPnmm51O5/Lly59//vng9953330RDDNxsaURIjMAyd+4whyZVNxosKAvNADEK54T8M6dO1euXElEK1euPHjwYJB7v/nmG47jIhlnYrLauvTGdnmStECbFeFDC4UCNuoJrdAAEK94TsDNzc1SqZSIMjIy6urqgtx73333PfbYY5GMMzH9WNlAREX56nBPgNWr6RMLiOi78sBvBQBAfBDze/iurp8XnnO73cHsZdXf2bNn9yytu7v7461f+G+RyWREZDKZhirghFJ+uJ6IRudn8vIGDkuXCYUCnd7ceKw5WSaJfAAAAKFSqVTBP5jnBJycnOz7WywODKbXvf1Uf6VS6by5s/y3CIXCTf/Tp6WlDU24Caa2yUxEE4vz09IUkT96WlraqLzsn+qNjUYbGxkMABBPeE7A+fn5VqtVqVTabLbc3MCRpr3u3bZt25w5c9jfAoHA6/X6Hi8UCrOzerlbKZGg/hQyg6nD4XSrM1M1qnRemqCJaMxIzU/1xspaw5wpo3kJAAAgfHi+Bzx37tw1a9YQ0erVq3u2Kve613sS+zuy8SYQ1v95bGEOX9mXiE4rKSSi/YcbXW4PXzEAAIQJzwl45cqVL7/8slgsfvXVV1etWsU2+gb49roXIqOmwUhERfnZPMagzkzNUMpdbg9bjgkAIJ7w3AQ9Y8aM2tragI2+em2ve3s+DIacw+lmOS+SM1D2asbEgq27Kytr9CV8RwIAMLQwFSX04ojOwHFejSotYisg9WVUvpqIquoMHIffWwAQV5CAoReVNXoimjo+n+9AaFxhjkQsMpg6TO02vmMBABhKSMDQi3q9mYhG5oYwoC1MZFIxC6Na18J3LAAAQwkJGAJZbV06vVkoFER+BspesfvQeyvr+Q4EAGAoIQFDIJ3ezHHePE2mUpF86keH38QiLREdbTLhNjAAxBMkYAh0tMlERCOio/pLRFp1eoZSbu92HtEZ+I4FAGDIIAFDIJaAxxVq+A7kZxOKtHRyaDIAQHxAAoZf8FU02WqAUYINRmJ9swEA4gMSMPxCvd7McV6lIjlKbgAzpWPzhEJBXZPJZnfwHQsAwNBAAoZfYAOQSsfm8R3IL8iTpHmaTCKqa2rlOxYAgKGBBAy/cOBwI0VTDywfdhv4YPUxvgMBABgaSMDwM5fb02hoI77XYOjVuMIcOtlBDAAgDiABw8/0xnaX25OhlGtUaXzHEqgoXy2TihsNFjPmpASAuIAEDD9jKyBp1el8B9ILoVDAGsbrUAkGgLiABAw/azK0EdHYwhy+A+nd1PEjiOgw1gYGgLiABAw/O6JroSgbAeyP3Zk+hNHAABAXkIDhBHO7zWrrEgoFw6OyCZqI8jSZWemKNqu9zWrnOxYAgMFCAoYTWM2S9XXiO5Y+scFIVWiFBoDYhwQMJ+iN7UQUJUsQ9oWtDfwT1gYGgNiHBAwnsBHAo6L1BjBTmKuik/eqAQBiGhIwEBFxnLfRYKGT811ELY0qTSGXmdttuA0MALEOCRiIiKrqmh1Ot0aVFs03gJniAg0RVWNtYACIcUjAQER0zNhORMUFw/gO5NSmjs8nomq0QgNAjEMCBiKiBr2ZYiQBs2HKNQ1YFgkAYhsSMBCd7NYUhYsg9ZShlGelKwymDqwNDAAxDQkYqM1qt9q6lIpkVbqC71iCwvpC4zYwAMQ0JGCgo02tRFSUrxYKBXzHEhQ2Vgq3gQEgpiEBw4lMplEp+Q4kWGMKhhFGAwNAjEMCBjKYrHRykqmYoFWnKxXJemO7w+nmOxYAgAFCAoYTY5DGFGj4DiQEbMUITAoNALELCTjR6Y3tVltXhlIe/VNw+BtbqCGi2gYj34EAAAwQEnCiY9XfkbnZfAcSGjYauKoOHaEBIFYhASe6yho9xcgUHP7yNJlCoaDRYMFtYACIUUjAiY7VgGOoCzQjk4pZJbheb+Y7FgCAgUACTmj2bmejwSIUCvI0mXzHEjK2dPGhGj3fgQAADAQScEKr15s5zpunyVTIZXzHEjI2bqquCZNCA0BMQgJOaK2WTiLSqNL4DmQgxhbmCIWCmgYjbgMDQCxCAk5obA6sXE0G34EMhDxJqkpXcJyX3cYGAIgtSMAJjfVgGhNrXaB9WD+sA4cb+Q4EACBkSMCJy+X2mNptFLNN0HRyVQY9asAAEIOQgBMX64GVla6IrTmw/OVpMohIpzdznJfvWAAAQoMEnLjqmkxENK4wlqaADpCnyVQqkq22rkaDhe9YAABCgwScuFpMHUQ0LGbbn4lIKBSw0cAGUwffsQAAhAYJOHGxGjBbVih2adXpRHS0ycR3IAAAoUECTlD2bqfe2C4UCmJuFugAE4q0hFUZACAGIQEnKDYFhzpTKRGL+I5lUHI1GUKhwGixutwevmMBAAgBEnCCYiOAtTHe/kxE8iSpOlPJcd4arA0MADEFCThBsTmwivJjbBngXpUUD6eTrwgAIFYgASeoRkMbEcXiIkg95ajTCesSAkCsQQJORC63x9xuEwoFcdAETUQTi7SEjtAAEGuQgBOR3tjucntidBXCnpSK5Ayl3N7tNLfb+I4FACBYSMCJiLU/x+4U0D2NzM2mkyObAQBiAhJwImJzYMXoKoS9YqOBa9ERGgBiBxJwIjpZA1byHciQYd250Q8LAGIIEnAiYivYx0cXaEajSpNJxY2GNkzHAQCxAgk44VhtXVZblzxJmqZI5juWoTRcne5ye7A2MADECiTghFNRoyeisYU5QqGA71iG0ghtFqEfFgDEDiTghNOgNxPRCG38tD8zYwtziOhgdRPfgQAABAUJOOEYTFaKi1mgAxQXDBMKBWiCBoBYgQSccBoNFoqvQcCMPEmqSle0We1WWxffsQAAnBoScGJps9ptdgfLVXzHMvTYdBxskBUAQJRDAk4sBlMHEWVnpsZZDyxGq04josN1zXwHAgBwakjAiaXV0klEw+PuBjBTmJtNJ0c5AwBEOSTgxMIWzR1dMIzvQMJCq04XCgXVuhZMxwEA0Q8JOLHE3zIM/hRymUaV5nJ7WEUfACCaIQEnEI7zmtttErEoL46WYQhQlK8moiO6Fr4DAQA4BSTgBGIwdbjcHq06XSIW8R1LuLAVJqqRgAEg6iEBJ5CaBiPFb/szw0Yisc7eAADRjOcEXFFRUVxcLJVKp06dumvXrmD2lpeXT58+XSqVnnbaadXV1REPOYadnAMrnhNwniZDIhbpje2YjgMAohzPCfjJJ5+8+eabnU7n8uXLn3/++WD2Xn755ffee6/T6bzxxhsvv/zyiIccw1jXJHaXNF5JxKKRuSoi0mFtYACIbjwn4J07d65cuZKIVq5cefDgwWD2VlRU/PrXvyai3/3ud+Xl5ZGNN4ZxnPeIzkDx3gRNJ1/gUSyLBADRjecE3NzcLJVKiSgjI6Ouri74vRzHPfroo0uXLo1YqLGuzXrc4XRrVGkKuYzvWMKL1YCRgAEgyon5PXxX18836txud5B73W63SqWy2WybNm3yf7zd3rXxvff9t8jlyUTU0oI+sVTbZCai7PTkuH830uVCItIdMzU3G+Jyxk0AiFrDhoUwzRHPCTg5Odn3t1gcGExfe8VicXt7+5YtW6655poLLrjAt10uT75s+a/9SxAQvfrGhuzs7CGOOwb9cLiFiPKHZ8f9u5GdTQr59za7Q5qsyFDK+Q4HAKB3PCfg/Px8q9WqVCptNltubm5Ie5csWWI2B3a0kUmlPY8iFGK0FemOmYlo/ChtIrwbeZrMqrrmer05Kx4XfQKA+MDztXju3Llr1qwhotWrV8+ePTuYvcXFxazv1a5du+bNmxfZeGMYW6JAnZnKdyCRMEKbRViXEACiG8814JUrV1566aV/+ctfCgsL3333XbZRIBB4vd6+9r7++uuXX355dXX17NmzN2zYwFvoMcVmd7RZj8uTpEpF8qkfHftG5WcT5sMCgOjGcwKeMWNGbW1twEaWffvae9ppp1VUVEQiuDiiN7ZznJd1D04E4wpzhEJBXVOry+2J43k3ASCmxf/tQKCT7c95mky+A4kQiViUp8nkOC9aoQEgaiEBJwTWGDtMpeQ7kMhhKz7VYz4sAIhWSMAJgS1OEMerEPbE+mHpje18BwIA0Dsk4PjncnsMpg6ZVDxcnXAJGDVgAIhaSMDxz2Dq4DivOlOZUNNCsWWPGw0We7eT71gAAHqBBBz/2CqE2YkxAthHIhZlpSs4zotWaACITkjA8Y/1wCrKj/MZKHvSqtMJt4EBIFohAcc/loFYNkooxQXDiKiqzsB3IAAAvUACjn9GSyclzCSU/livb9SAASA6IQHHOYOpw2rrUshlGcoUvmOJNI0qjYjM7TaX28N3LAAAgZCA4xwbhzNCm5VQXaAZhVymVae73B5MCg0AUQgJOM6xLtCsLpiACnNVdHImTgCAqIIEHOcScwySzzBVGhE1IwEDQPRBAo5zTQYLJeQYJIbVgCtq9HwHAgAQCAk4ntnsDlO7TSgUJGwTNLv5bbV1YT4sAIg2SMDxzGjp5DhvhjIlYdfElYhF7McHa4oHAIgeSMDxTH9iGeAEWoOhJ7YK8qGaY3wHAgDwC0jA8Ywl4JG5Kr4D4RO7/603dvAdCADALyABx7NGg4USeAwSgxmhASA6IQHHM3bjMwEnofSXp8mUiEUGU4e53cZ3LAAAP0MCjltWW5fV1iVPkiZ4DVgmFbO74JiOAwCiChJw3NLpzUSkVacn4CSUAdARGgCiEBJw3EL7s8/4Ii0R/YQZoQEgmiABx60mQxsR5Sb2GCRmuDqdTjYJAABECSTguHVyDFKCTkLpT6tOV8hlVluXw+nmOxYAgBOQgOMTx3kNpg46WfkDNh3HEZ2B70AAAE5AAo5PBlOHy+1RZ6bKpGK+Y4kKGpWSiI42mfgOBADgBPvkpswAACAASURBVCTg+MSqvwk+AMlfccEwQkdoAIgmSMDxqV5vIfTA8sPuhR9tauU4L9+xAAAQIQHHKyzDECBDKVfIZW1We4eti+9YAACIkIDjFZsFOleTyXcgUaS4QEMn3xkAAN6FnIBzcnKuv/76+vr6cEQDQ8Le7eywdcmkYlW6gu9YoghrD6htaOU7EAAAogEk4MrKyvPPP/+ss85KSkoaP3781q1bbTbMcR9d9MZ2jvNqVGmYhNLfCG0WEdU0GPkOBACAaAAJOCMj49xzzz18+HB3d/dzzz13/fXXp6amDh8+/J577glHfDAA7AYwyzfg41uXEP2wACAahJyArVbrW2+9VVxcLBAIrr/++jvvvFOv19fW1ubn50+fPj0cIUKoWALWYgqOX8pQypWKZHu3E7eBASAahDxLw+jRoxcuXPjxxx8XFhYKhT/n75UrV951111DGhsMUL3eTOgC3ZsCbVZ5dVNdkwnNAwDAu5ATcEtL70vKCIVCu90+6HhgCBw7MQYJXaADjcxVlVc36bEwMABEAQxDijdGS6fD6VYqkjEJZU+sWR4TUgJANAg5AYvFgZd1qVQ6RMHAEMAaDP1gE1IeM7ZhWSQA4F0ICVgsFovFYo/HI/6l2bNnhy8+CBVrX83OTOU7kGgkT5JmKOUc561rwmhgAOBZCK2UbrebiKRSqdPpDFs8MFgtJisRFeVjGeDeFeWrv6/QGUzWcYU5fMcCAAkt5CZoZN8oxyaaQA+svrAFKnAbGAB4F2wN2Ffx7XkPWCgUIitHCZfbY2q3CYUCNEH3pfDkskh8BwIAiS7YBOxLsawhGqKTud3Gcd7CXJVELOI7lijFOkKb2m0OpxsdxQGARxiGFFdqGlqJSKNK4zuQ6KWQy7TqdI7zHtEZ+I4FABJayAn466+/zszMJKK6ujqBQCAQCLZs2RKGwGAgmgwWQhfoUynMVRGRwWTlOxAASGghN8FdfPHFH374IRGNGjXqs88+c7vd5557LtqlowRLKiNzVXwHEtWGqdKIqBnzYQEAr0JOwGazee7cuTU1NUS0aNGiMIQEA8cmoWT9jKAvrAZcUaPnOxAASGghJ2CPx7Nly5a33367sLCQiL766qusLMxrHxWMlk6rrStDKUffov6N0GYJhQKrrcve7ZQnYR43AOBHyPeAP/nkk3PPPbeurq62tpaILrnkks8++ywMgUHIWi2dRFSUr+Y7kGgnEYtYPzXcBgYAHoVcVVqyZIn/Hd++FkeCyGOzQA9TKfkOJAYU5qr0xvZDNccKcb8cAHiCYUjxg83uhDmwgjEyN5uI9MYOvgMBgMQVcgLevHmzQCDwX4wBqyFFiUZDG53sYQT906iUdHLhCgAAXoScgJctW8ZGH/lgHspo4HJ7zO02eZJUqUjmO5YYkKfJlIhFBlOH1dbFdywAkKBCTsBpaWkLFy4MRygwGPV6s8vtwRQcQZJJxXmaDCLS6c18xwIACSrkBPzwww///e9/R6032hhOrEKILtDBYpNCoyM0APAl5AT8xz/+8S9/+YtcLsc94KjClvdhSQWCMUKbRUQ/6dCNHwD4EfIwJMw6GZ3qmkx0sm8RBKO4YBgR1WFdQgDgCYYhxYlWS6dQKEANOHjqTKVELLLZHTa7g+9YACARDSQBX3bZZenp6WKxmIhGjBhht9uHOioIjbnd5nJ7hqszMLFi8IRCAasEV2NdQgDgQ8gJuKSk5OabbzYYTlyz1qxZM3LkyKGOCkJT02AkrEIYuuHqdCKq11v4DgQAElHICfjgwYNz585NSkpi/5577rlmMwZy8Ix15cUN4FCNLhhGREZLJ9+BAEAiCjkBT5kypbW1leM4IuI4rqWlZfz48WEIDEJQrzcTxiCFjq3bWNNg5Dgv37EAQMIJOQHv3bv39ttvVyqVRKRUKm+55Zby8vIwBAYhYE3Q6IEVKoVcppDLrLYuU7uN71gAIOEMZOHYN954Y8jjgAFrs9odTrdMKk7DJJShK8pX7z/caDB1qHEHHQAiC8OQYh6r/hbmZguFAr5jiT2YjgMA+BJCAu65DpJAIPj444/DFxwEgy0DzGY2hlCxBMymMQEAiKRgE/DmzZt7roP06aefnnPOOVu3bg1riNC/FpOViHKRgAeE9VxjP2IAACIp2ATMsu+iRYv8Ny5evPijjz5aunTpgA9fUVFRXFwslUqnTp26a9euYPbu2rWrtLSUbaysrBzwoePGMWM7EeVpMvkOJCbJpGKlItlmd2BdQgCIsGATsEgkCsi+zGCyLxE9+eSTN998s9PpXL58+fPPPx/M3muuuWb16tVOp/O666676qqrBnP0OMBxXjYJJWbhGLCJRVo6eSsdACBieO6EtXPnzpUrVxLRypUrDx48GMze6urqefPmsY0YAWW0WF1ujypdIRGL+I4lVuVrs4ioGv2wACCyBjIMaQg1Nzez1QwzMjLq6upC2muz2XrOARK4ULFAQEReb9xOs3DkqIGIRuZmx/FrDDdtdhoRNRra8B4CwCAJBCGMRgkhAbPVF3oSCgdeje7q+vnGW8+FDvvfu3bt2ocffth/i93e9dZ77/tvkScnE1FLS9xWbo7UHSOiLKU0jl9juKXKvFKJqMlgaW42YCgXAAyGRqMJ/sHBJuAwLQOcnPzz3BE9E3w/e2tqatra2s477zz/jXJ58jW/vTSgkBdfXRfSOxJb2jr3EdGE4hEaDeahHLic7PR6vdlF0hGaLL5jAYBEwfM94Pz8fKvVSkQ2my03NzfIvS0tLU8//fQjjzwSyVCjE+sCrVGl8R1IbMNoYACIPJ4T8Ny5c9esWUNEq1evnj17djB7v/7665tuuunpp5/uq0k8cRgtnQ6nm01ozHcssW1coYaI9MZ2vgMBgATCcwJeuXLlyy+/LBaLX3311VWrVrGNvpvYve694oor3nnnneTkZIFAENLt7vjDpo/AGgyDx95DJGAAiCSeK5EzZsyora0N2OjrjNrr3vr6+khEFgvYDMYFWty2HCx1plKeJK3Xm+3dTnmSlO9wACAhYDGGGMbuWbJV5WEwhELB2MIcl9vDVlYGAIgAJOAYxpqg0QNrSGhUSiIymKx8BwIAiQIJOFbZ7A6b3SERi1TpCr5jiQcjc1WE+bAAIIKQgGMV6zGUnZmKuSOGxJgCjVAoqNYZ+A4EABIFEnCsOqIz0MnV9GDwZFKxKl1hszuMlk6+YwGAhIAEHKvYMsAj0AV66LA382hTK9+BAEBCQAKOVSfnwFLyHUj8KC4YRkRHMR8WAEQEEnBMsnc7DaYOoVCAWTiGEHszq+pwGxgAIgEJOCY1Gdo4zpunycSsEUNohDZLniRlSyzzHQsAxD8k4JjERgCrM1P5DiSuSMQirTqd47yNhja+YwGA+IcEHJNqGlqJKFeTwXcg8SZPk0FEGIwEABGABByTGg0WIiouiNt1jvkyKl9NRLUN6AgNAGGHBBx7OM7baukkdIEOAzauuqbByHFevmMBgDiHBBx7jhnbXG6PUpGMHlhDLkMpV8hl9m6nqd3GdywAEOeQgGMPuwE8BosghYevEsx3IAAQ55CAYw+bBRojgMPk5HxYmI4DAMILCTj2sNyASSjDBDVgAIgMJOAY43J7jhnbCMswhM0IbZZELDKYOjAdBwCEFRJwjDnaZOI4b4ZSLpOK+Y4lPsmk4jxNBsd50QoNAGGFi3iMYWswoPobVkX56romU11TazF6ugEfOM5bXt3UaLDUNrQ6nC425GFS8fAJRcPxyzue4LOMMdW6FiLKxw3gcBqZqyJMxwF84Djv7v21n+2uZNPN+tu9v1YoFMyYOPKSJdMVchkv4cHQQgKOMU0GC6EGHGYjc7OJSKc38x0IJJZDNfo3Nn9rbrcRkUIumzGxYFJxrkwqttkdh+ua65pM9Xrzt+V11TrDpUtnlo7N4zteGCwk4Fhi73YaLZ1ENBxjkMIpQynPUMrbrHZzuy0rXcF3OJAQPt5x8MPtBzjOq1GlXbR4aklxrv9elm6Nls7XP/imWteydsP2JWUTL1w0hadgYWggAccSNgJYnZmK+0DhlqfJbLPaaxqMSMAQbvZu5+r1X9Q1mYjowkVTFs+ZIBQKen2kOjP1zqsXb91d+c7WH7fsrLDauq48b3ZfD4boh17QsYQtkzehSMt3IPGPrTRVg9vAEGb2buez6z5n2ffWK85cUjbxlAl18Zzxt1+1SCYV795f+/yb2zBveexCAo4lbGDMMFUa34HEP3aX/VCNnu9AIJ5xnPfZdZ/X683yJOm9K5YG/9t6XGHOqmvPkknFh2r0//34u7AGCeGDBBxLWMfIovxsvgOJf8UFw4RCgbndZrM7+I4F4tYbm/fU680Kuezu65aEOrddnibz3hVLZVLxjh+qP9x+IEwRQlghAccMl9vTaLAo5LI8TSbfscQ/iVjE3ud69IWG8Phw+4Gde2tkUvHtVy3SDKhZS6NK+8MlpxPR5u3l31fohjg+CD8k4JhRrzdznBdTQEfMuMIcIjpY3cR3IBCHdvxQvXl7uVAouO7ieYP5ST2hSHvR4mlE9Obmb9kQCYghSMAxg3XTQPU3YkblZxORwWTlOxCINwZTx3uf7yOiS5bMCBhuNACL54wvm1pk73a++u5OdMiKLUjAMeNkDywl34EkijEFGqFQUNfUau928h0LxJU3Nn9r73bOmFhwxswxQ1LgRYunqTNT65pMW3ZWDEmBEBlIwDGjWmcgojGYnThSZFKxRpXmcLrZ8GuAIfHxjoPVupYMpfzSpTOHqkx5kvR3F8wRCgUfbj+Ar2sMQQKODTa7w2Z3ZKUrMC9EJLHBSGz4NcDgNRosH+84SETX/rpsaOdzLspXnz69mOO8m7b+OITFQlghAccGtj48ZqCMMDbi63BdM9+BQDxwuT0vb9rpcnuWlE0Mx0Jb5y0sVSqSD9Xod+6tGfLCIRyQgGMDywFslR6ImKJ8tVAoYL9+AAZp8/Zyg6lDnZl6VtmEcJQvT5Ky2aHf37bf4XSH4xAwtJCAYwNbBhhjkCIsK12hSlfY7A62QA3AgDUaLF/sqSKia35dJk+Shukoc0pHTSjSWm1d732+N0yHgCGEBBwDHE43q4QhAUceayrEnJQwGBznZY3PZ84aVxjmdqyLF08TCgVf/VCNYcHRDwk4BhhMHRzn1arTsQp35LEEjPmwYDC27Kxgjc8RWEBQq06fUzqK47xsqDFEMyTgGFBV10xEBaj+8oG1OmBZJBgwq62LDc+9cNEUiVgUgSOeu2CyRCzaW1mPIUlRDgk4BjQZ2ujkAnkQYRpVWla6wmDqaLPa+Y4FYtLGLT84nO4JRdrSsfmROWKGUv6rOeOJCEOSohwScAxg41BxA5gv7Kbd0SZUgiFkeyvrf6ysFwoFlyyZfsqFfofQkrKJCrnsUI0effijGRJwtDO32wymDplUjATMl1H5aiKq1rXwHQjEGJfb8/62AxznXTp/0sDWOxowmVR8VtlEItq8vTySx4WQIAFHOzYAKU+TGZm7R9DTuEINER1BAoYQfbGnymDqyFDKl5RNjPzRz5g5RqlIrqprbjRYIn90CAYScLQ7emIRJNwA5o1GlSaTig2mDkxuAMEzWjrZrJOXLJnOy69niVhUNrWIiD7egRUaohQScLRjI1DDMXEdBG9MgYbjvIdqjvEdCMSM9z7f53C6p44fMXX8CL5i+NWc8fIkKbpDRy0k4GhnMHUQ0cjcbL4DSWijT4wGRlMeBKWmwbj/cINELIrAwN9+yJOkC2eNJaL3t+3nMQzoCxJwVKvXmx1Ot0Iuy1DK+Y4lobFB2FVYlQGC8/62/Rzn/dWc8erMVH4jOWPmWHmSdP/hRkynGoWQgKMa6/gzrjCH70AS3chclUQsqtebrbYuvmOBaPd9ha5a16JUJLPBuPxSyGWnlYwkdIeOSkjAUY1NwZGPAUh8k4hFbCkqVIKhf745IJctKAnfogsh+dWc8UKhYE95HSrB0QYJOKphGeDowfrBYU5K6N/ne6rM7TaNKq1s6mi+YzkhK10xq6SQ47yf7a7kOxb4BSTg6GVut5nbbTKpGE3Q0WBMgYZOLswM0Cub3fHJjoNEdOnSGZGc9+qUFs4aKxQKdu+vxT2UqIIEHL1Y9VejSouqMzlhsdvARksnVnmDvmzefsDe7ZxQpI22H815mswxBRqH0/3ld0f4jgV+hgQcvdigl2g7kxOW7zYwKsHQK6Olc/f+WolYdMmS6XzH0ouzyiYQ0Y4fqjnOy3cscAIScPRiU3CMyscI4GiBtYGhH+9s/dHhdJ85a1yEp30O0rjCnDxNps3uqMB8MlEDCThKsTUYJGIRasDRo6Q4l4jKq4+hDgEBdu+v3X+4UZ4kZRXN6LRg5hgi2o5W6KiBBByl2BoMRflqrMEQPUZos+RJUquti01PBsA4nG429Oi8haVRMvSoV6eVjFQqkg/V6LG0V5RAAo5Sh+sMhCmgo09RvpqIyqub+A4EogjrXaxRpbHFD6KWRCwqHZtHRFt2YnmGqIAEHKXYCmJYAzjaTB6bR1gbGPzY7I5Pd1YQf6sehYRNynGoRo/O/NEACTgaudwetgohEnC0KcxVEVFNg9He7eQ7FogK72z9sc1qnzGxYEKRlu9YTk2dmTqxaDjhTnB0QAKORjUNRpfbo1WnK+QyvmOBX9Cq0zWqNIfTjb7QQETVupY95XUSseiixdP4jiVYbIbqb8vrsL4175CAo1GjoY0wAjhasUowa6KARMZx3k1bf2SrHsXQemXFBcOK8tU2u+P7Ch3fsSQ6JOBoxC7u6IEVncYXaYkIFy/YsrOiXm9WZ6YunT+J71hCwyrBaIXmHRJw1OE4L5uEktW0INqMK8wRCgUGUwda8BKZ0dL58Y6DRHThoinR3/cqQElxboZS3miw1KEhh1dIwFGn0WCx2rpGaLOUimS+Y4FeKOQyjSqN47yHMKNQAtvw8Xcut2dCkbZ0bD7fsYRMKBScVTaRUAnmGxJw1GG9e1D9jWZsSqyqOgPfgQA/vi2vO1Sjl4hFvz33tBhdK+W0kpEyqXhvZX2b1c53LIkLCTjqHKw+RkRj0QMrirEJug/XNWNOygRk73Zu3PIDEZ27oCQrXcF3OAMkT5LOKR3lcnu27aniO5bEhQQcddgNYHSBjmYTi4bLk6RGS6fRYuU7Foi0t7f8YLM7tOr0M2eN4zuWQZk7tUgoFOwpP4reDHxBAo4udU0me7dTo0qTScV8xwJ9EgoFbE5KTImVaPYfbty9v1YoFFx53uyY63sVIE+TWZibbbV17T/cwHcsCYrnBFxRUVFcXCyVSqdOnbpr164g91qt1lGjRkU20ghha82WFA/nOxA4hSnj8wmDkRKM1db1xuZviWjp/Enx0UvjzFljieiz3VW4mcILnhPwk08+efPNNzudzuXLlz///PPB7G1paTn77LPr6uoiHmwksCk4RsbFuR3f2GCker3Z5fbwHQtEyGv/281GKJwzv4TvWIbGpJPjkY7o0KOQBzwn4J07d65cuZKIVq5cefDgwWD2Tp8+/dprr41wnJHhcnsOVjf5mjchmmUo5XmaTIfTfRArIyWGL/ZUHarRy6Ti6y6eF6M9n3uSiEWzS0cRxiPxhOcbjc3NzVKplIgyMjJ6Vmp73fvdd9/l5ORcd911PUvjOM7S1u6/RSgUEpHL5QpH8EOutrHV5fbk52Qmy8SxEnMiG1eoqdebq3Utk0bHwCz8MBjNrR3vb9tPRMvPmpaRmhRPp2fZlMItOysO1eg7Oo9H82LGsUIikQT/YJ4TcFdXl+9vtzuwJ16ve3Ny+uwe7HA6v9q123+LTCYjoo6O2Fg+/YeDdUQ0PDs1VgJOcPnDUolob2X9opmFfMcCYdTlcL2wcbfD6S4ZnTNuRGb8nZ6Fw7NqGk3b9lTOmzKS71hinkoVwg1EnhNwcvLPkz2JxYHB9L+3l9KSki4679yAjS++ui6kd4RHtcfaiKhs+thYCTjBZWZmZXxW3ma1C8RJsTseFE7pxY07zB12rTr9movmx2Ud8czZ42sad+ytOnb+mdPjpnU9JvB8Dzg/P99qtRKRzWbLzc0NaW+cMbfb9MZ2iViENYBjhVAoYMO10Rc6jr2z9ce9lfUyqfj6i+fFZfYlotKx+VnpCqOls6qume9YEgvPCXju3Llr1qwhotWrV8+ePTukvXGGzYo+rjAn1gcXJpTpEwuI6FCNnu9AICy27q7curuSiK6+YI5Wnc53OOEiFArKphYRumJFHM8JeOXKlS+//LJYLH711VdXrVrFNgoEgn72xqu9lQ1ENBpLEMaUkbkqoVBwtMlktXWd+tEQUw7V6N/Z+iMRXXne7KnjR/AdTniVTS0SCgUVNceMlk6+Y0kgPCfgGTNm1NbWut3u6urqiRMnso1er7efvQGPiQ++JQgnFqE/bSyRJ0lLinNdbg/a7uLM/sONazdsJ6LzF5ay2mF8UyqSZ0wcyXHeXXtr+I4lgWAqyqhQ19RqtXVlpSviuJkrXrFlM1gDBsSH3ftrX9z4lcvtWTp/0tL5k/gOJ0LmTx9NRDt+qMbcMhGDBBwV2E1EzL8Ri2ZMLBAKBVVYGSlebN1d+foH33Ccd+n8SecvLOU7nMgpyldr1en2bic6FUYMEnBU2H+4kYhKx8Z5T++4pJDLhqszHE43JvOLdQ6n++VNX7+z9UeO816yZHpCZV+Gre+EVuiIwZI7/LPZHWwA0qRiJOCYNH3iiEaD5cDhRiwiOSTM7bZ6vZmdF76V8pSKZLFYqJAnaVTKrHSFOjN1aA9arWt57X+7ze02iVj0uwvmzJhYMLTlx4QZEwve2fpjTYOx0WDJ02TyHU78QwLmX3l1ExGNzFVhAFKMGleY8x7t+75Cd8mSGZjHYGBcbs+hGv2Bw406vdlg6jhle748SapVp4/QZo3QZuZpMjWqtAG/821W+3uf79tbWe9ye/I0mdf+em7CdsWQScVTx+fv3Fuz/bsjV54X5yM/owESMP9qG4xEVDo2j+9AYIBGaLPyNJmNBktVXfME9GMPUZvV/unOit37a32VXXVmala6IkMpVyqSh6mURMRxXpu9u6vbZbN3G0xWg6nDZnfUNBjZ2AEiylDKiws0I7SZpWPzgp+VTG9s/2JP1fcVOofTLRQKlpRNPH9haYL/hDpz1rjd+2t37689f2GpUpF86ifAICAB84/dAE7MJq+4MXlsbqPB8m35USTg4Nm7ne9s/ZHlPyLSqtOnjs+fMbFAnak8ZRZss9qttq6quubDdYZ6vbnNav+2vO7b8rqNW35QyGUjtFkZSrlWna5VpyvkMjaDlYfzut0eo6XTaOk82mQ62tTaZrXTyWkols6fhPlEiUirTi/KV1frWnbvr11SNvHUT4BBQALmGbvXlafJjPyPTe64tevQnuPfb3Udq3W3t3LHrdxxqzhDTQIBCQTkFXg5l6fdJJDIhPJUgVhC5OVcDs7aRkTCFKVAJBGIJSQUcPbjnN1KRKL0bGFSiiRnhLRgvLz09KTiKQKJLMhgvC5Hd/U++4/bnI1HHEcrPe2tRCRKU5FAKBAJyEuc00FejjtuFWfliFIzxOrcpNFTkkvmSgvGC0RiZ8OR499tddQddOgq3cYmFqEwRSnOzJEOH5VcOj954ixRahjvac0pHbV5e/nB6iaX24NbCafkcnu+/O7IZ7sr2QQmEzTyM+iwyvy54z8Hj3dajhKJ0rNFykxxdq5s1CR5yVzZqJKA71KGUp6hlI/QZrEkUa1r0enNDXpzvd5stHQGOTdZVrpixsSC+dNHR0Pq9bS3dlV937V/h/NYrdvSzFnbvC6HMDVDIBITEQkEXs7jsbQIJDKRMlOcpRFn58pLT08umSvOGuKeB2fMHFOta/liz+EzZ43DlzmskIB59kOFjoimjs+P5EG7D3/f8ck6+4/bkibMSpn5K+WZvxEps7oP/9C+5XW34Wjy+NmidJXHbu0+tEekyPSSh0Si5MnzBEKRu7Wpu3qfUK70WM3i7Oyk8bOIczobqp1NNSkzF6fOv0CYnu02NjnqDpr+/YCnrTV10W/SfvVbsbq/zmUug8669U3r1jckmhEps85OW3KVRFPg6bR0fLLu+J5PZKMnS3OLBWJxV8U3nnZz2vl/UMw8SyAWu4xNjrqDhr9f73W5vMQJJbKUOeco5l2QcdHNslElRMQdt3o6LW6zwXWstnPbW61rVqXMXJx65m+SJ8wKx1uala7QqNIMpo5qXQsqwf0zmDpe3rSz0WAhoglJnadV/CfXqU2ZsVh62rWSnBESTQERuc3Nns42t7HJ2XDEuPYe7rg1bclVyrN+29evqOKCYcUnZ5FzON2NBku93lyvt7RZj7db7Z6Td5QlYpFSkaRKV+RrswpzVVEy77p931ed296y7/uKnY+pZ1wkUmZ1le/q2LbRbTia5DsfD+ySjRiXunB5ckkZd7zDeazWvv+r1pf+nFxSpjzzN/JpC0+k6kGbOn6EVp2uN7bjyxxuSMA8q6ozENGk4uGROVzXoT2WN/7OddtT512QveJRYYrS63Hbdvyv5ZlbJZoR6edeq5i7TCASc8et7R+90n3wG2nBWK/H5TY2SXOL5FMWtL+3VpiskOQXidrSiATJk+emzFwsEIk97a2dO95rffkBcZYm65r7U2Yuzrz0TmfDEeu2t5ruPi9l5uKMS27r+TvdbWyyvP1sV/mulNln5/79A8nwUUTUffj71pf+7OlsS513QdZV9/o/ixVoePy6lJmL08691tlY7eU46YixXle3S68Tp2XLS8qEKUr2YFYDlmgKkifMUi7+7YkI194jztJkXXUvS9JDa/rEEZu3l3+zvxbXrL5wnHfLzoqPdxx0uT3pQsevLVtGz5qdevVbLOn6E2fliLNyZAXjU2Yuzrj4lu7qfdbP3mi8dVHqGRenX7iy/8YMmVRclK+OiVH17Hz0HLemn3NtCLGA3wAAIABJREFU9srH+zof2YO9Hrf9x22d2ze1f/CvtHOuUS7+rfLMS7njVtuuD9v/t7Zt47PpF93MzsfBB7akbMIr7+7a/t0RfJnD68CBA9649sIr/+E7hD41NJtXPLDu7qc2eTxcuI/lsXUYnr5Zd8Pczt0fcW4X2+ioP9x459nH7v9Nd83PXwPbt5/qbphr/OfdLpP+xMOaahpuX1SzvND40p89XTa20X7g68Y7z9Y/cpWrpZFt4dyujk/X61bMan31Id/DPLYO038ePfr76R2frvcdl3O72t79p27FLPNbz/g/0vjPu+tvXWjd9rbvkb2/kKdurL14ZOPdy5z6o2yjs/lo89+v162YdXzv9n7eBM7tsm57u+6qSS3P3+k77lCpbWxd8cC6m/76Rrejz+AT2fEux+P/+njFA+tWPLBu7Z/uaXnvJc7ZHVIJ7jaj8cV7j149xbrt7TAFGTHBn489sW97/a0L7RXf+Db2PB8HFZ6Hu+vJt1c8sK6h2Tz40hJNkEnnwIEDohtuuGHYsHheAODH/QemT5nMdxS9+2Z/7eE6w+zJheEeAXz8u62GJ1ckl5Rp7lgtGzFOIBR6Pe62Tc9Z3vxHxvJbs676szhzGBFxx63G1XfYD3ytvvEJ5eLfCuWpRORsONLyzM2yopL0pddYt77hNtQnT5otEEslw/JTz/yNx2I0rlklkCXJCicKRGLZqJLUBb+2//C5ef3jsoLxEnWuQCqTT54nLz29bdNznV+9J584x21ubv7rlVyXbdgdzylOWyIQS1mEzY/+TlYwTrPqBdmoEoGw9yliuOPW1hfucR6rzbrsTqeu6vgPX8gnzhGmKEWKdMXcZZJh+aZ/3edqqmER9ny6QCiUjRyvXPSbrgNf+yIcqjc5Qyn/Zn+dze7Iz8nMyU7QcSx9MZg6nl33RaOhLYXrWp5+7MLbb0+dXBZqXU2YlJIy7cyksVPN6x/vOrgruWSuUBaT3XSDPB/7wr7tovRs4//d1t/52MdJFAy2Ik5VbbPN7pw+Ic4XohhyQSadlpYW1ID59OCaD1Y8sK6yVh++Q3i6bIZ/3NBwx2Jn81HfRmdTTcMdiw3/uMG/Fnj8h8+P/n66+a1n/Guf5reeOfr76bZvP/WV1vJ/t+tWzPL/6e1sPtr4p2VNf77Y/6f38b3bj/5+uvGfd/sfou39F2t/M7ruignWr97tGWH/v/p9EZrWP+6rObW9/2Ldb8e3f/yaf2k9I+y9tN4iHKT/fbFvxQPr/u/1z4eqwPjQ0Gz+49/fWvHAuofu/Yd+T39NFEHi3C7Tfx6tu2pS5+6PBl9aJAV/PgbD3WbUP3JVMOfjAHR02m959M2b/vqGpeP4YMpJQKgB/yxqa8AGU8eHXx5QyGWXLT3NtwLj0HKbm5sfvVqaX6z54xpRmopt7Dq0p/lvv8/8zR2Zl93lqyZ2bH7F8t9/5Nzzr9R557Mfzl6Xo3XNKkfdoeEPvum7YyoQS1NOWyJSpLeuvUeUqZaNGEdEIkV66sLlLn2def3fksdOZz/eJTkFqfMvtH75tm3H/+RTThcmpXg9bvv3n3FdNoFQKJQrkifMYjebDf+4QaLO1dz1T7Gqvxvhtm8+Nr3215w/vZR6+kW+mlPSmGnyyfPM6/7mMjawAnuNsFc9Ixzs202Ukizd8cNP7Vb7/OnFUgk6WBAR7T/c+PKmrzuPOyZLTLfcdV164ZjBlykQCuWT58kKxre+eC8RyYomD6a2FzF9nY+GJ/6Qcclt/udjkIRJKanzL2Tfdol2pHT4KPrl+ZgybaFIMcDGGJlU0txqbWi2SCXisSM1AyskMQVfA0YC5s2X3x2p1rXMmjxq8piwtD87dJX6+3+TtvTqzOW3+TJW55ebjGvuyl7xaGrZeb5Htq69x/bdlpy7/yUbOYFt4Y5b9Q9cRiLxsD8+57tS+MhGjpdPXdD6wj2e9tbkCbMEQiG7IIrTs1uevlk6fBS7EAiTUlJP/7WjvtL86l+TJ8xiXas0f3oh7awrOz56xbZrszS/uPnhK+XTFmZevqr/S49l47PWres1d73gi9BHnDksdeFy21fvWbe9nTJ9kUAqYxGmzFhkevUht0nPIuy1WBahq7XJ9O8HUkpPFykHO04pTZF8sPqYpeN4doYiSnrY8mv3/tpX3t3Z7XBPTWq//vbfS1OGcv5I9hOq/d1/dld8I596xlD1AQ6T7up9+ocu73k+mv79gPrWZ1Jm/GrAJbPz0fj8nUKJjP1W9p2Pxv+7PWnMtAGPUxqWpfzq++pjLe3zpxdjPFLwkIB/FrUJ+H+f72uz2s9dUDIsSznkhXdX72t54g/qlY+lzr/Qt9G69Y22d5/P+X//lpeUsS1ej7t17Z/cLQ059/1Hoj4xFZenvbX50auTxk1X3/hEX/VCUZpKMevs9refcxmOJk+ayzKcNH9MUvEU43N3iLO10vwTFR156enebrvx+T/KiiYNu/05YVKKQCpTlC2z7fyg7a2nMy69PeO8P/RTfWEROnWVOX9+1RdhAIFYqphzjuNoRfsH/0qZsYjdFxQpM1PLzu/44F/dFd8kT57XT4JPnjBLnJ7d8swtslElg78lLBIJDxxuPG53lE0dPciiYl15ddO/3/ma42iB2nXVbX8QSYMdFB48YVKKomzZ8W+3WL94Sz51QdTeEj7+3daWp24cdvM/As7H9v+9oH1gvaxwsPNdsPPR/J9HXK1Nvl+c0vwxssKJxmdvFau00ryBfBtTU5KqdS0Gk1WeJI2JXuVRIvgEHAPtNnHJ3G6razIp5LIxBUPfttNVvtPwxAr1rc/Ip53p29i2aXXHlnXDH9zga0/2etyGJ/7gdTpy7vuPb1yH29x87L7lqfMuUF19f/9VCnFWjvahDa5jta0v3OP1nJhEMHnCLO1D/7X89ynrFxt8BXZ+9a6i7PyuAzudukq2sbvqe2fDkZRZZ3du/a+n09LXIXqNsC+qq+9PKp7S/NAVvgKFKUrN//u3p9NieOIPXPfxfp6rmLsse8WjhidW2H/8ov+jnFJJca5ELKprMrFZlhJWVV3zS299xXG0eFTSZTdeG775HQUSmfrWZ8Tp2f4ffVSxffNx69p7NH96qef5qL1/fc8hWAPDzkenrjLgfMz582uWN57wnY+hYvOcfLHnMBYJDgckYH6w6SfHFebIpEPcbtb55aaWZ24ddsdq/xknWl/6c+f2d3L+/JpvTgzuuFX/l+VCqUx96zO+OYYcusqmu89TLr487dxrgzmWMEWpueffHmub4fHfe10OtlGaP0b70H/b33vBsvFZX4Hqm/8x7NZn9A9fYd/3lS/CYbf9X8qss5vuPo/NXRWg1wj7l3XVvQEFCpNSNPf8W5gkb3nqRl+EvUqZuVhz5z+Na++x7/sqmGP1RSGXsWm9d+79aTDlxLRqXcua9V+4PNyikUkXXbk83IcTiMTqW5+R/fLnV5To/HKT+fXHcu57LeB8tO/dpn3ov/3PUROqU56PAyhzQpFWnZlqtXVhkeBwQALmx97KBiKaXTpqaIvt/HKTeV2Ps33tPY7qfcP/9q7vVhB33Kp/+ArJ8FHq25/zVXMdusrmh67IvOzO9PNWBH9EgUisueufRGR4YoXvnBdn5WjvX9/5xVv6ey/yFZhcUjbs9tWGp24wvfKQL8KMi29JXXDxsQcvDcjBXpej+dHfBUQYjJ4FCkRizZ9eEmfm+EfYq+SSspz7/tP6wmBzMJvXbG9lwymX9IlLNQ3Gf775hYvz/qpYufx3Yc++PtkrHpXPXBxVObjzy01t7zzv3+xERK1r73G3Nmkf2hCOuVH7Ox+3bxpYDj6rbCIRfba7MjG/z2GFBMyDNqu9rqlVIhb5Js8bEr7sG3C2O2rLcx5Y7zvbWfaV5hdnr3w8MPte8SflmZeGelyBRKb500vsWL62LyLykpeSktzmXyxTLxBJiDiPtc23JfOS2wNSptflMDyxQjJ8lH+EwetZIBFl3/C4KDXzlDlYVjBe8//+bXzujsHk4NKx+VnpCr2xva6pdcCFxKhqXcuz//msy+mZN1Jx8eXnR/jomZfcnjzl9CjJwex81PzpRf9qLjsfh92+Ovhp0kPV6/koVucOf3BD5/ZNnV9uCrXA00pGKhXJemN7VV3zEMea8JCAefBteR3HeWdMLBjCjoVdh/b0zL6Wjc8GZF8iMjyxIiD7ejotzY/8bmDZl2HnvKfTYn7tr3Qyx2decnve4x92bt/U/sFLRNRdvc+45i7t/a8P++M/W569pfvw976n+1ImW4Oh5ZlbROnZA8u+vRbIZN/wOCvc/1dCT7KC8epbnwmIMCRCoYCtbbVrb83ASohRjQbL2v9uc3m4mfkpl195AS8xZP32btmokuZHru7/rn+4+c5HX29E8jsffROmhknA+ciwHGx5+1nbrg9DKk0iFpVNLSKiLTsrhjjQhIcEzINvy48S0ZShW4DBoats+ceN2Tc87p99O7/cZP1kneZPL/ln39a193Dd9uwVj/pyG3fc2vzI1YqyZQPOvgw757ur95lff0z/8BXy6QuVZ14qVudq//yf9vde6NjyuuFvv89e8ahsVIl8yunZKx41/ONGl0Hne3rmJbfLS09veeYW4/N3us0G/wgHxleg70J84qrU3mrZ8FT/zz0R4d//4KgtH9jR508fLRQKvq/Q2budAysh5ti7nf96a7vd4R6t9F5z9YU8rqqbfcPj4iyN6aX7+v+lFT4OXaXxuTuG3fXPgPOxc/umYLoTDgnf+ej/bWfno+nVh0PtbPirOePlSdJqXUu93jzUkSY0JOBIM5g69MZ2pSJ5YtHQLMDgNjYZ/vb7zCv+lDJzsW+jfd9X7Ae4f/OXZcNTjtrynPte8zV/eV0Ow1M3SvOLs668d/CRCCSyYX9c3bHldYFY7CtQMnyU6pr7Ta88oDzrcl+EirnL0pZc1fy33/s3Far+f3vnHRfFtT3w2d6XZRfYpYgIigpIVERRjDUxNowFjXkmJgY1ViI/ezQaS9QkGoxYMcYSSYya6LN3ow8VUYOgoBBQRGAbW9je5/fHmHFc1mWFhaXc7+d9XvDu3LNn586Zc8u55yatssjF2jsXBUt/cssEnU/SKhyVgZ2Iw5Eo/sv26/NuqC5kOK/LjE/gTf5S9N3nDgPEaoXHYbYP9jNbrJmtYxBsNFk27zsvVmhDaObp08d7/Ex7/vztVq2q1p5WQ2CRlIs3zvKdvhYbh6HLuSY/sjlgxUECx7fRNMGRKIJFuzSZJ7FPOykwjJ+cKtm68I06l3QqeUDPjhAEnfqrjl1SgEOAA25skGnJmIhgt7ykbFpV5TefeI2Ygh2/Ih1wweJd2A646kKG+voxuw64ZOsCPJVen8leO+S/bqR16mGueKq7dwXVUP5HGqv/WNWl37FDXu/EufRu/UXffo4uyqov/26zmEj84OoTP7lFGRyBKFi0yyItl2d8hxbiGeyAFQeVJ3Zrsy84r84amMhJmFbrsvHrQGbtsvOetobQlX1/Zj4TKXlE8xdffNT4J1vXBGl6Q35W9dn9jfm9iD1yRk3D7jh6YY+L0t2148h1kPAr+W+bsE87Lbqv78wNwvVJWHuslX49wilkYl5Ruaiq2v2KtlaAA25skA1IPaJC6i8KNhuF65OYvYdj45aRAbFfciq1UyxaqM2+oDi+I/DrQ9gOuCzjW6tawU9Jc5f3RQQKlvzk/3WGNH2ZoSgHtloQDf1mb+RNWixc++krQ95PV5ADw5BFWd29y4rjO4JW/R6w8ld9flb1qZ/dohKOQPRftt9OIJ7BFizahWjovLrXyM/I7SJqXTZ2SPeItnQq+blI3uJDsX45cevvx8/JOOvsqe/TqW+WTLHhwBGI/PnblSdr72m5C9Qe2UMmoYWoPVJCIhpHDTuIfkH+Kw/aPe2MnkNq2qNzvNn0XtGhEASdz8xvEEVbJcABNyr5xZUSuVrg4xUa5IaZKHHqXKK3r/f4L9ASJPqJM3oGvVt/tNBQlCPZksKfl4adjtZmX9BmXxDM3+6uaEysQEpIBD8lTbxpVtVPX6EasgYmsgd/IPr2c6wz85m+FrZaq37+WrJjCaIhnsH2X7qn+tyB+ufEQEAFYmNPyMEdEQ3NFSXOq/vO2ABbrdhgFhchEQlIN+ty1uM3rduMOHP9ATLNPnV8/0BB08q+SeT5+y/ZU7VnZZ3j6d4Icepckn/bmvbInTgfa4+ND2qP2JhEh/bonOH9ulDIxJv3SyolyobRtNUBHHCjgoRfxXdvX//556o9Ky2ScuzsMbJ3Fjl/Hr3MXFEiWp/kk7SKGt4NLUQOveenpLkrGrOmQFpkHCU0SnPtGG/Ky4xanDEz8Qx21Z6VaEUcgejz2QrVpUOMnu+hGhI4vn7JqZIdS2r1ji6CCJSmL9PnZ6GFtMg43uQvK7/5BPtWqgmOQOSnbDEU5SiP7XjT7x3YsyMEQfcfl8mUmjqo3fTJL648efU+BEFj+nZ4K6Kdp9VxADm4o19yqmhj7T2telK1ZyVsNta0R9aAcayBiQ361a5Ai4zjJEwTrv0EGxxe0x6d482mv9snAoKg/1653yBatj6AA248dAbT3wXP8HhcXHR9X1Xqq0c1t874L9+P9aDS9GU4KsNn+tqXEc4GrWjTLK8RU7CvAHNFiWjjLH5KmrvmxBwK1Nw4aXzykNFnhGz/N9gutmDBdmPJA3RlzmbQin+Yy3nvY232eewUGTW8m8+UFaJNs9y1oZMa3s13+jfi1LnYoCpmfILXu5NEG2c5HwTgqQz/5fuqL2a86aA8wI8THR5ks8HX77bArFgypebAH9dsMBQX7jdkUC9Pq/NaaJFxyLNk06oa6CvUV4/q8jL587djV3Ok6ctIgWHeiXMb6EvfFK+Rn1HCu9lt1rezx1oZ2LMTnUq+//g5GAS7BeCAG4/rd4vMFmtMRNt6Rqno87NkGd/6L92DXdBVHtthLHnAT3mZNwq2WsSpyZSQCM6YmehlVqVUuD6J++F8bIhmfXAoUJ+fVbV3tWDRLt+Z39p0Ktkv69CPkMhMZGUO0ZAcGMb9ZBk/OVX03XRsVAgzPoHZZ6RofVLdYqBqgoReizfPxQrkjJlJ9PbFaugQAouLJKp8o7gVCIKQ2FGk6d9c5aaL0WRJ239OqbeE+1I/mvCOx8OencOMT6B37S/ZtqAhNiYh9shPTsWeXILYI2+yGzYXuBGfpFVO7NEVCUw6pVd0OwiCToJwaHcAHHDjgcw/9+sRXh8hyCYHv1e3/GqzLyhP/+y/ZA82wln2yzqbVuU7cwPWJYu+m87oPayeW36xiFPn2gm0quXi1LmIhkggjC7nGnYjBLIyJ92xRLpzCaohLbovb9Ji4fok7DDFO3EuOSTCrs9eHxwK9J39vS7nWq0zzJSwaN6kxZWrP7LI3iAfEJJKV2cwtbD9SD8duS5U6IOY0JxpY5rFQXXcSYtsWpXr060u4ro9NgWc2WP6MlNZoStC3usbRSIS/i54BgbB9Qc44EaiuExSKVG2DeDVJ/2kVS2vXP0R98P52E0Ohsd3pDuW+C/dg42xUp5I1+VcEyzehY2xEm+ahSNRuBPn11kBO5DXGVYgbDaK1iexh0xCNcRTGf6L0uW/bdLnZaKXkYM7sgaO0/z1p+/0NaiGrIGJzN7D7bb9+CStMlWUuHFDp0/SKqtajhWIpzIClu2vPndAff2Y87qsgYmsfmNE65PeKMsSkkr3r+zCFrMf6Y8L9/L+qWDiLXOmj3P7aSINBJISXJ+fVYe1/Nfhuj02HV5nj77TvxFuSHJlxcebTUe22IFBcP0BDriRQEJh63n6gjg1mdF7GDbGyqqWi1OT/eZ8j+2A6/Ozqk/v9V/6SgdcfnizWfSMv2C7uzYdqS4f0udn2QmU7lhCEoR4j5uDvZIUGCZYukeybSG6/moqK1RfP85+72Np+ldYd8udOB9HZUi2vpwqxBGI/kv3aG6crDV1hosggwC93SDAL0iwdI/swLpasxNwJ84nt3uzQTmSSldUVZ1XVJecHk2Nm/dLLt3KJ0K2mR+9482me1qdNwDPYPNT0twYYO+iPTY1atojBEGMnkO83p2E3ZfvBHQQDBJj1RPggBuDSony/uMyOpXcpx4OWHE0DbJaXhluWi2SLSmswR9gO+AWmVCybYFfcip2178+L1N1IUOwaJe75sT0eZny3zbZCVQcTTOLSrGT3ijU8G7e4+YgXWyLTCjckOQ7/RufqauIPIGdM+OnbDGWFlSffrltl8DxFSxKl2V8W+u2XRfBUxmCpXsUf2zFCqSERPjN3OBK2JfvjA0WmQiroXPQVLpnrj+os85NhOIyya8nbtlg3JSEHu1D23hanTfmxWEbb76WXxMX7bFpgrVHtJAzZmZNe3SIN5uORPgfu+Qek2y1AAfcGFzOemSzwb2i29V5vk5z46Tm5im74WbVnpV4Ohs73LQZtKL1SZyEadiQKHNFiditiXgcCkQ0FCzd87qNxewhk+gxg8Q/zBV+O52TMA1JS+k3Z6NFJsTOCuKpjIAVB6tP78VuGaKERPDn2W9krA9Enr/f7O/tBNJjBrP6jRGnJjt/ASEnvtlp6JyhfaPYTNqzSlmzHgTLlJrdhy6bbfDwHsE9YiI9rU4doYREcD+cL/ru8/qc1uDQHqU7l9jZY1PmhT2++rTXtMfXMaxfFwqZ+OiJsLhM0pBqtnCAA25wdAbTnYeleDxuUFznukkwPL5TtXe1YP527HCz+ux+Y1GO3aEFVenLKWHRXsM+QUtsWpXwu+l2+4DrAyKQN2mxg43F87Y4H2HzJi02i8sgixnVEEei8BdsV135HRuESeT581O2SLakYIcp9G79vYZOFm2c5a6gaFp035oCuRPn40gUbOpKhxA4vjU1dAKFTERGDFeabVIOo8mS9stFpc7S3o+eMLyfp9WpF+zBE6mdetQ5uM+hPSpPpJueFtT/EJHGhDdpMY5EwcZDoPZY6yw9nUoeHNcZgqDD5+42rJYtGuCAG5yz1x8YTZaunYL9uKw6VLfIhOLUZH5KGinw5fS1Luea8uRuwdI92H3AyAywz9RVaMmLTJDxCczew+vzE+wEUkIisBuLLTKhaOMsv9kbsSevOaT67H6ISISNemxiyBc7fLakvLIPuFMsZ/SMytUf2U2Roakr3fJzHArkp2xxJRcmtVMsd9Ii15P5DejZkU4lP3oifFJeVS+lPcTuw38JZRofim3mpyOb+KYjV6i5IcdFHNvjvcvVp/fa2WOzgJ+yRXvrLLb76/qOu+H9uiDzOrfznjSsli0X4IAbFnT/Sb8eHepQHbZaxJtm2U8pi0pfpJbk+aOFmltn1H/9YTcDLNu3hsD2duOcmGzfGths9Juz0U5DZt8E7FlMDtHnZSr+2Bqw+CfB4nT5kc3YLjYlLNonaZXdPmCvYZ/QIuPEG2dhpwp9pq+1qhTuDIqevtZm0NkFRfsv3aM8ubvWQQCr3xhmv9F2Gr4OOpWMZBE60QyzCP1y4taDYiEZss6aMpJJb6iT5BuTF7F4LpyLheW19rh1IX/+dqw9NhfwVAaSFx0bfojsuBN997nzziWJSHh/UFcIgo5dyjGaPHPyY3MHOOCG5XLWI53B1EbA7RgiqEN16c4lpMAw9rDJaIlNqxJvnMX9aBF2BthYWiD7ZR0/5ZUZYNXlQ7q8TIchUXVDdfmQLueaXfpo6c4leAabN2mx87rG0gLxlhS/2RtJgWHk4I78eWniLSnYIEzWwETWwETJlhTshDCSh/mVKTICkZ+yRX2p9ikyF0GOzdFmX8AKJHB8BUv3SNOX13oWIXfCPALH18UOwbt9Ingc5qMnwua1Enzyr9zMv4uJkHVGYp+mlu25PuCpDP9l++SHN7t+MJ+L9ti8IAd39Ju9Ubg+yc4e6TGDxLWt+PTpGtZGwFWodC0gwNAjAAfcgJgt1r+yCyEIGt4vqg6zdvJDm0xlRa9kl7VaRN9Np0X3fSXxhVIqXPuJb9KqV3Yi5WXKDqyzW6aqDy8ELtpld8Cw6WkBf16a8xMdEA19pqxAU9LTu/X3Hjen8ptPsGk3eJMWEzi+dnuQBIt36e5escsbIFi8S7wl5Y0ONHUCnsrgp6TZCaSERNTU0CG+Mzfo7l6RZXxb6xeRiITh/bpAEHTiSm5z2RN8//HzM9fyIAiaMiImMqpeOWSaIESef03f8zok2xbY26PZWP7lGDt7bI7Qu/XnjJpW0x7xDDbWHmuCx+P+M7IXBEGXsx611ITnDQpwwA3I9btFGp2xfbBf107Bb1pXff2Y+voxwavZZavSl0MEIvfDlzsfbAat8NXEFxAEmcoKxVtS+PPSal2UdRGHAl9ouCjd+boXqiEzPgFbzhk1nRYZJ9r0ShfbLznVLHqmOPIjWkJgcQWLdskPb9blXEMLqZ1ifZJWiTbNcuW96QqUkIiaAtlDJtXUsCbIJJ760u+aW2dq/aI+XcN4HOZzkTyrOSybFZdJfjpyzQZDCTGBPWK7eFqdBoHerT9nxGe15qBQXz+mz8+yt8efVhJ5/lh7bL64aI81CQ3yiY0KMVusGaduN7yaLQ3ggBsKs8WKTMuMHBD9psNfw+M7sgPrBIvSX0ludWyHsSTPbgYYyfaMXeW1quXCDUm8SYvddQKaQ4EONXRITQ1RfKd/gyNRqn56mR0QWX9FXDtaiBwdKNmSgj3QhtVvjNe7k4Qb3iwplRMcCqypoUPIwR35C7ZXpS+v9cgdPB43YWgPCIKOnLur0ujrr3bDodLod/121WyFe7VljkwY5Gl1GhDOmJnUTj2cbD9z3R6bNT5Jq2xalZ09CuZvV53PcJ4k7j8je7GZtPziyjsPSxtcy5YFcMANxdXsQo3O2DaA96arv+aKEiTMEnu4kD4/q/rcAbvjj+SHN8NmI/b4IwiCxKnJ7EEfuPEEtJoCrUppTQ0d4lBDLIIF200vsREfAAAgAElEQVTPC5Un0tESAsc3YNl+ecZ32DNcaZFxPlNXCdfb5w2gRcaJU5Pr+MNq4FAgoqHiaJrzuqiGtWaK7tqpTWT7AJ3BdPTC3/XVuMHQGUxbDlxS6U1RPoSPPx7laXUaHN/p3+Cp9Kr05TV9sEN71Nw4WX0xw84emzs4AtF/+T59fhbWHol+QYLFu5yfqUynkpFu5aEz2TqDqTF0bSkAB9wg6Ayms9cfQBA0aWSvNxr+WmRC4fok3uQvsWGWxtICyZYUfsoW7PFH6qtHNdeP85NT7TJB4ql07PFH9aSmQJtWJVyf5DViSq3nKTnU0A4ciSJYukd54pWQY1JgmF9yqvjVXbbM+ARmv9Hi1GS7TNGwQeveTNF2AhENq0/vVV0+5LwuctqSaH3tCXUnDu9JIRNv5z1pmpn8zBbrtozLzyVKPsmUNDWxWZy1UH/487ebnhfaTbc6tEckHiJg2X6sPbYMCCxuwIqDdvZI7RTrN3uj2Omu99iokMj2ARqd8SyIxnoTgANuEM5ef6AzmDqH+rcNeIOoUeQkA86oadjlUoukXLQ+yXfGBmqnWLRQm31BfmRzwIqD2FeA7MA6s7Scn5LmrrDnmgJhs1G4PonerT9n1HTndR1q6BACi+u/fL9kxxLsPmBaZBx3/Dy7XbbcCfNIvkF223YFi9J1Oddq3bbrOjUFElhc/5UH5Qe/q/XINq+Rn9F7Dqn1CEU/Lmto3ygIgjJO3W5q0VhmizX98PXi51UcvCl5RiKdSva0Ro0EjkD0X7Yf2/QO7dEsKpVsWyhYtAu7D7glQfQLqmmPjJ5DatqjHUi38sLNgkdP3uC4sFYOcMDuR6bUXM0uhCAImZZxEdhsFH03nRIWjc3tbpGUV3w9kTtxPnb9VZdzTZq+zG5FSn54sz4v040rUjUFIhqS/Nt6j//CeV2HGjqBEhLBT0kTb5qFjUNmDUxkD/5AuOqVXBw+09fCVqt058scRngG23/pnupzB2odobqIQ4GUkAj+gu122yUdwp0wjyQIqTXL0tC+UQIfr2eVsqvZTSs31v7jN/OKyqmQJXlqgg/Py9PqNCpI0ytP7tblXHudPVau/og7aVFTPmuh/rhuj1j8uCwkyH//8ZtgW7CLAAfsfg6duWO2WPt2bx/gx3G9ljh1LoHj6zN9LVpi06oqV3/kPW4Odv3VXFEi2bbAf+ke7IqU+upRXfYF/5UH3bUi5VCgNH0ZgeOL3YbhEIca1gotMs5v9vei7z7HxjFxxsxkxA0Trv0UDYxC8jBbVQrZvjXoZQSOb8Cq35THdmpunHT9G53gUCAtMo6fnGqnoUN8Z26walVYDWuCx+M+GxtPIhKOXrjXdM5V/eXErTsPS4mQbc7kIYEBfp5WxwO82AK+c0nl6o9ea4/9xnhQw8bBRXu0Y0ifyPAQvkKlO3Qmu7E0bd4AB+xmHj0RPiyuoJCJSI4YF5HuWAKbjVjfhlg7a8A47BZDi0wo2jSLn5xqt+VXcXyHYKnbTv/W52XKMr7lp6TZnXTkSqpbZM3MZ8qKOgwRaNF9uRPn251H5J04lxwcjo2OwZEoSLZI+0PFl+6p2rvaXZuDEYGyjG+xAmnRfXmTv6z85hPnWfoQDQ1FOc4Xp9sG8EYOiLbZ4N1H/9cURgy/nLiV+XcxFTbNGBfXITTQ0+p4DEpIBLltZ2NxLnvIJOf22LJx0R6x4PG4T0f3oZCJN++XgIhoVwAO2J0YTZZDZ+7YbPC7fSLYTJqLtar2rbbIhYJF6diEG8L1SfSYQd6Jc9HLLDKh8JtPeR9/SYvuixbq8zKle1YGLNvvrjR4+rxM8ZYU/6V7sEtciqNp2qyz/isPOp/ftsiElSs/5IyZYbfl13VYAxMZccPsprl8p39jVctfmXamMvyX7FEc34GdJSYFhiFJFdzlg0mBYYJF6eLUZKxAZnwCd/y8ytUfOffByJlOupxrzn3wkD6RoUE+lRLl0Qv33KJz3TBbrD8d/R/ifb8Y36dLF/dsH2+mVO1bDcFW/vztom+nI03v0B5bAy7aIxYehzlhaCwEQYfOZDfxjXZNAeCA3cmpv3JFVdWhQT5D+rh6WJviaJr21llsMinYahF99zmB7c2dMA+9DPFt7EEfYBeD9XmZok2z/GZvdHGptVYQgfyUNOz4VXE0TXXxV//l+52PsF9oOPiDeg4RuBPmUTvHYm0eR6IIFqWbK0qwNk/0CwpYtl9+8DusD6Z36+8zZYVw7afu8sGUkAi/Od/bCWQNTPR6d1KtmXLxDLb/8n3q68ecZBvG43FTE9+mkInX7xZduFngFp3fFCTq6s7DUqrNmDy2R2hUHc/sahmg9sjo8Y7PlBXC9UmmipKa9th6cNEesfTt3r57RFuNzvjznzeaWoxhU4Mwc+ZMPp/vaTUakHv3c3t0e6sRvui5SP7r6WwYhqeN7+/rzXSlCuLbAlb9RuS+aALE+8JmI///tuKILwJQEd/G7JvgPXY2WtdQlCP6dho/OZXWpY9b9EcF0t96edhc9amfq8/uD1j1G9HH2ZykTauqWPEBM36k93g37Mqldx9oLHmgPLaD0XsYnkKDIAhHIDLjhitP7Db+k0OPGYTD4yEIIrC5tK5vS9Pm41lelNAopC45uCPBiydJm0/r0hu9q/WB6BNYUyC1c6zpST5WQ4fgKTRaZJx060KshvY/lkrm89j38p8VPhW1C/Sp25FZdUZnMKUdvPLoiZBqM84ZGdU+5g3CBlsedvZIDu5oM+glW1IITLZg4S7UHlsbLtojlogw/7sPn5UJ5VarrXNo8zujop646HTEYjFwwO7BbLFu+/UvebV2RP/ouOhQV6pI05dpb58PWHkQPdbeplUJV/0HR6EJFmzHUxlIobG0oHLFB6xBE7gf/B9aV5dzTbx5Ln/ORmwGyvrgUKDiaJrq6pGArw6gGjrEIimv+Go88+33sRrWE0bsO8bSAuWf21/aPJnC7DOi+vTPhqK/UZsncnxpXd+Wbl+EZ7BRD0dpF0Hg+km2LaRFxrnFBzsUiGgoO7iBGTvESewbqqHNoHvdzml/Xw4Bj3/8RHT/8fOO7fy92fT66+wKMqUm7eCV0ooqKmyaMzKqQ89aNna3bBzao+LIZhyZapVW0rv1d8uz1Exx0R5RSERC51D/mzklRaXiNgKuwKd1hdMDB/ySxnHAR87dzS0sbyPgJo3ti8PVnnmjat9q46O7AWt+R9duYbNRuPojUmAY/4sf8WQqUmiRlFcuH8+dtJCTMBWtq8u5hoQZ0yJ7u0V5hwLlhzfrbp8PWH3I+eoyslHKe+wsrIZugREz2KKUKn79ntFzCNIdwZEprH5j1Jd/1z+8Re/WH1kyJ3J8mXHDJTsW4UkUdOac0rYzuU1H8Q9zqJ1i3bI67lAgI2awTauq2re6Vh/MjBtetW+1Tat6nQ/u0JYvrlKVCeU5BWVdO7Vh0qn119k5z0Xy738+X6XQ+FoUyZMGtXvrDWIGWx5O7NF/2T6it58b51SaKS7aIwqLQWXSKQ+KKh4Ulb/VsQ2L0eCPdNMBOOCXNIIDvnm/5Pjl+yQiYfZ/BnJYtQ9fpDuWmJ4+xK6q2rSqypUfUkKjsGHGxtKCypUTeR8vZQ+agNZVXz0q27fGf8lud+1EVF89Kt25RLBgB7VjDFZDXc7VgJUZBC8fJ3WNpQWVy8d7v/+519CP3aKMHbTIOKtKLt31JSP2HQKTAyFzX72Hq6/+ob72J7PPCORe4RlsZuwQafpyq0pGi3oxIU/yDyG36Sj6fjolOJwU4NKchHNI/iGUkAjxD3PIgWGoQFpkHGQySn9eyYgZhGjoEERD+aFNVoUE1dCOTqH+/5SKJXL1g6KKLuFBDFoDZhi+87B0x6G/9AZzsKli7uT3BJ3eYMNYy6NWe0SmQKQ7l9IierZmH+yiPaIgaYgelQjzCsvj3gojk9yTIKjpAxzwSxraAT8XyfcczTRbrBOGxr7VsY3zi2GzUbI52aKUBnz1C572YrXPIimvXPMRo8dgn0+WozM5xtIC4dpP/GZuYPYZiVZXXz0qP7I54Otf3XXMkfrqUdmBdQFfHXjF+6YvMxbnBqw+VKv3Fa76iPvRogbyvgi0iF6wUV+152v6W28j+uAIRGbcUO3t86rzvzDjE5CVOTyDzej1nuzAOrOkjN71RZwayT+EGtZFvDmZ5BfkljtG4gfTovuKf5hD5PmjAqmdYwl0tmTrfFRDh+AZbFbf9+W/pxqfPqR37V9z2YxEJPSKDn1WKXtWKcu890/bAF5DrAebLdZfT90+fvm+1WqL1eZNT/7Uq13rjXl23R4pbTtT2nYSbZpFCYsmuSnmsTnioj2idAwRyJXaf55JHpUIe0SFtJK0psABv6RBHbBKo/9h30W11tCna9jowbWcyG1VSoXffALh8f5LfkJjng2P71SumczqPxa7gKq5dUby4xd+szfSuw9EC+WHNqnOHwxc+SuJ/8aHGzoEERiw+jfUl9i0KtGmWTat0n/5fgLD2bLNvxp+x4xv8Ez9tIheBCZHmv4lJSQCeffhCERmnxHGp/nKP7fT33obmf7F01ms/mOVx3cYHt9FJ8RI/GB6t/7SbQtxOLxbjkxH5pPFm5OxAintIkj8YMnW+aiGDsGRKawBY5Undmtvn6V3618zeouAx3ePaPu0vEosU/1dUMbjMIL43vXXGaWoVLz5wKXCpyIiDh5lzEpcupzSin2J6/aIQOIHUzvFijfNwna/WiEu2iNKdHhQ4VNRaUXV0/Kq2KgQQo2uZ8sDOOCXNJwD1hlMWw5eEVWp2gi4UxPfdt65M4tKRRum0aL7+s7YgHYSdTnXJFvn+3y2EjuIVJ5IVx7f6f/lXmqnF6NSm0ErSZtvFj71X77PLTNgrwj8d9HLLCoVrZtC7RTjO2MDugjtkJcado51cpkbobSLoHboJtmcTGByKO0iIAjC4fGMmMEQbJPsXELt0A35FTgyhTUgUXf3kursAXq3/shKFZHjy3r7fVnGd6ayx7QufeqfKBvPYNcUSA4Ms9PQITgCkdV/rP7hrerju9C1NCwEPD4msq1Urn4uUuQ8eq7SGDqH+tf/naVQ6TJOZv156W+d3tQWkn3o9azPgjVO5sxbPK7bIxYiz58RM1iybQGs11I7xtScxmgloPZI4geTA8Og19gjAg6H69Y5uKBY+LS86ml5VUxk2xbvg4EDfknDOeAtBy8/eS7lcZjzJr/DdhpioLl1Rrxplve4uZxR01GjVR7bIT+ymf9/2+hdX2z7gc1G8aZZpmeP/ZftRYe5Fkl5xYoPKMEd/eZsRGfJ6oNDgfq8TOH6JDsNa+JQw8aByPNnxL4jO7jBUHQPHeBSwqLJAWGStBR0PIrD4xk9h1jVcumulz10PJXBfHuUNuus8r+7avbQ64BDgQ41rAmioc2gxWqIBRkHk4iEolJxaYXsQVFFkIBb59Bos8V6O+/pll8uPxcpyAR8v+pbE7rzQz5d6LyP1bKpaY+w1aI4nKo4tg1rjw4hsLms+ATlqT3amycdTmO0Eog8f/pbb0u3L7ZUVdIieqL2SOT4ijfPxZMo2AknEpHQtVObvwvKyoTy4jJJdHhQy14PBg74JQ3kgH85cSvn0XMmnfJ/n7zr6/1avwhbLbK9q6pP7/VfshudT7YZtJIf5xmLcwNWHSL/G85jriipXP0ROagDPyUNT38hUHfvsvDbad6Jc7zHzXXLGUe6e5eF6z7zGv4p98MFqED54c2y/WsFC3Yweg5xUhfRkOjlI1i8G9WwMSEwOaxB49VXjqjO/0Lv0hdxeyT/EGafEVU/rTA9e0zr0hsZzVA7xlDahIu+nYanMSmhUTg8HkckM3oNtVZXSXd96ZZlPESgTaOU7l5OCY1CBCIaaq79qTp3ANXQIYiG4h/m4ChUREO7C9oH+4W35ReVikVV1Tf+LhZXqQQ+Xm8USqozmM5cf5CWceX+o+c2G9yBgx9TlN77P5M5Qz9utUM3h/ZoVUpF304zC59i7dEJeCqD1X+s4fFd+e+ptMg456ESLRiClw+r/1jlsW3qv46iTzs5uCO9W39p+jJzxRPUHiEIopBJXTu1yS8WPquUPfynokuHwBZ80BZwwC9pCAeMZM2lU8lffPyOk1U6xLCt1bKAr35B42aNJXnC1R9T2kXw5/2IDkDVV4+KU5O5E+Z5J85Fu+TygxuUJ3cL5u9gxL5bf50RgYrDP/rN+Z41cPxLDb/73FicG/DVL87DqtVXj4o2zWK/8yFvygp3HXdYB3B4PLPPCLOwtGr3V+Q27ZG7iqezmH1GqK4eqT69lx7Vh8DmQsjq71tvyw6sNxbepb/1No5MgZDlKxZXsm0BZLW4ZQqR2jmWHNRBum0hbNQjAnF4PDM+waZVSbYvwsZL14TED2bEvSc/9IPhwQ1UQyw8DrN31zCTyVImlFeIldfuFJVVynE4nA+HSSS8VnOdwfSgqPzI+XvHLuXkF1fCMBQawB0BPexT+Fu7hWnYTGqtjdfZY+XaybTOsVh7dAVGzGA8lSH5cR7Bi+dk0aFlgyz6IPZIjeiJzDwTOb6sfmNUV4+ozh7ArrPQqeRe0e2elleVVshu5z3t1E7gyp6R5ojrDhiXm5sbHd2Sj9batffA51Mmu0ua2WLdf/zmnYeldCp53uR3nBz3q8u5Jt25hDX4A86oaegjWH3qZ8XxHT5TVqDZkm0GbdWelcaSB36zv0ddoFlUKtmSQuT58z79yi3bWB0KdKhhTRxq6HEMj+9Iti6kRcf7TFmBRtCoLmTID2/2HjfHa9gnSInNoJUf2qTLueabtArNoW2RlEt2LoEgyHf6Wuc5RlzEqpSKt6TYCTSW5IlTk+00rAlstch+WWenoR0qjf5qduHlrEfomQ1IjHSQwJvNpBlNFhKRIFNqZErts0qZqKoarRgewh8azmIeXc2I7MmdON9dh2U1RzQ3TsoOrKvVHt8Us6hUnJpMErT1mbrKXaehNEcMj+9Idixh9h7uPW4O1h6VJ3ZzP5z/yoHK/75CKWTi1MS3o8NbYBigi04nLy8POOA3QGcwpR++/uiJkEmnJH80+HXe16qWyw6sM5Y88ElahSZeMJUVSncuwTPYvtO+QVM3a7MvVO1bzeg5hDtxPvJSgK2W6hO7q88d8B43hzX4g/qPNR0KdKih45+cc026exlWw6aDzaCV7V2jf3zHb/ZGdMHJXFEi2bEER6b4zdiA3mfdvctVe9fQu/XnTf4SfTsoj+1w4312KBDVkDdpsfPpfYca2qHRGe88LH1QVF5cJnF+elLbAF6X8MBuYX7Uy7u12Rd8Pl3h/NtbNlalVLJtgVlS7jv9G+f2WDdgq0V+aJPmxknepMWMuGEenB/yLDaDVrpjibHkgV9yKtYexalz8Wwu1h4hCDp0Jhs5NH1o36iRA6Jb2PYk4IBf4i4H/OiJMP3wdZ3BhERdvW6PZvXZ/crjOxm9h6Eey6ZVKf7Yqr5+jDthHvpqNleUyDK+NVWUYF8Kupxr8oxvCd6+9X8pYAXiqAx+cioqsPrsfsUfWxk9h/Amf+nEp1pkQvmhTfr8LL/ZG507ac+CpPFi9BzCnTCPwPFFCpXHdihP7OaMmeE17BPEnyHjeH3eDZ+kVag3Qo4uhiCIN/lLaic3RHQj7h+yWbACEQ1pnWN5H3/ppFkRb617kMkdP4/Zb7Tz97ioqrq4TCquqtbojEgJm0njsOltBN5tBFwKmai+fkx+aBMlJMJ35obWPDJz0R7rj6Eopyp9mRuNt5mizb4gTV+GtUekg6K+9DvWHiEIyvy7OONUls0GtxFwPx4V52Q2sdkBHPBL6u+AbTb4v1fuX7iZb7PB4SH8z8b2dRiSaijKkWd8C1utPlO+QqZqYatFc/244o+ttMg47wlfIHO/sNmo/G969bkDnFHT2EMmIS8Fs6hU8cdWfX4W7+MvGT2H1P+l8EJg3g3uxPno2xzR0GbQ8SZ/6cSnvtDw9F72e5M4CdOa/rwlMs+syTyJvaWmskLFH1tNz4u8x3+B3lJdzjXFkc14Fpc74Qu0jVRnD8iPbGb1G8MZPcMtE/7qq0flhzYxeg5BBdoMWuWJ3aqzBzhjZqAaOsTw+I7swDoclcGbtKhuE/7mihL5oU3GpwXcSYvc8iw1U5CnHSIQ0Tvp0B7dCPIsKf7Y2lwMp4GwaVXyI5tdscfnIvmvp24/Ka+CIKhfj/Ax73RrGZFZwAG/pJ4OuLhMcujMneciOR6Peyeu86hBXWvOlhge31Ec22kWlXqPnol6O/XVo4o/thJ5Au8J8xBvh76FadHx3A/nI4uFFkm5/Mhm3d0r7GGTOSM+q7/RWpVSxR9bNZknsQKNpQXy3zbZaVgT2GxUnc9Q/LEVq2FzwVhaoPxjq6EkDzuC1N27LD/8I45A4E5ajPY5VBcyFH9spXbqgf7GF6Oiq0fd1Qo2g1Zx+Ef11aPMvgmoGzaVFSqO/GgoyvEaMcW5G0Y0JIdEoB0FV0B6Xbq7VzijprGHTW5qSwaNBmKPVpmQM24O+q6vaY8NBLK+40aLbqa4aI82G3zyr9xzmQ9tNphJp0wY2iM2qh0eX3s6/aYMcMAvqbMD1hlMh87cufPwqc0GC3y8pib2bSOwn8qr+ZDBVov+/jX54R/xVDpq6rDZqLp0SHlyNy0yjpMwDUmjY1VKlSd2a26cZA3+wF2ut6bAFxoW5WCHwjV5oeHxnbTIOM7oGc030Q/ye41lhd6jZzL7JiDzXYjZ46l073FzqJFxOAIR2yLeo2eSAsOgV2+g17DJ9Z+5RQQifh0V+Moz86+GNUFbhNqpB3fCPETD1/HC9eZc44z4jD1kEnjpO7fHRuBlZ2jMDPbgia28RWq1x0qJMuPU7eIyCQRBbQTc4f2iunYKbr5uGDjgl9TBAUvk6v/dLcr8u1hnMOHxuIE9O415pxt24Iu8HNWXf7fqVMiYEk9lWNVy5YndmuvHib5B3A/nI6ZurihRnv5Zc+MkI2aw94QvkPGWPj+r+vTP+vwsrxGfucX11hQIm42azJOqixlmSbnzlzKq4TPvwFJO4Kdf/4T99Pje7/0CQvq8Nx5b+MOiD/8zd62gzUuXoNeqNySPXrXncj1/CIrJqF/9+dC1+65hCx/n3Lhx4UjS4s21Vv8xeVRfgoWnFDH7j+YM/wxZk0PGQBCBwB78AfJOROYkqk//TAmJYA+dzOgxGEeiIHMSmsyTzN7D2UMnU8K61HMWF3HDqsuHGDGDUYHIi0n/6A6zbwKqYU1QN0zkCdjvTrJz2Ih3qT53wFj8oMWMt8TlT3/ZvHjBxsOuV0Ht0WbQcUZNs7NHkqBtY7peLIgb1mZfYMYncEZ85rwXZcf9m+fz7/5vUvJabOGfezYEtA2Pe2esuzVtWAyP78h/22QqK3Juj7fznpz6K08iV0MQFODHebdPRGzzTB/tugNupetDryO/uPKv7MKHxRU2G4zH47pHtH1/0FvoYZaw1WIqLVD/77j66lFKSARn3BxGj8Gw1WIsylFd/FWXc40eM4g/fzslrItNrVBfP6Y6d8AsKWf2TWjz/RmiX5BZVKo8ka668CuOTGENGOc3e2M9X5dmUak2+wJWII5Kx2rolTANcSo161qVUl1eJlZDUe5t+cWjdpfJJBVUmv1MZkVpocmgx5bYrJZnxQ/r81vsgG220qI8u0KdViUpf+pKdYlSwVq4MZDrozz98/OFwykhEawBifQeg1gDE5HOiuLwj/SYQawBid5jZnqPmanJPFl9cnfVnpXMvgmst0f7ztjAm/yl6nyGZEsKjkxhvT2aGZ9Q58gaAseXN/lL73Fzqs/uxwrkz99uFpUqT+zGamg37MaRKF7DPmEPmaS5flx1MUOW8S2iIYQnam+fVV89ijhmwaJ0Jzudmhdmk6HiaaErV8Jmo6EoR3PjpObGSUpYNG/yl9TIONig0+fdUP91VJ93g9F7WMCKg2/k9twLSRDiN3ujdZJUefrnytUfEXkC1oBEeswgV5aftepqaWWpXaFMVM70an4hddROsQGrDiF9/fLFo6idezDfHo21R+WxnYzew6LjE3p8PvSvnKfnMvMrJcr9x2/+ceFer+jQfj06tNQThYEDhiAIelYpu3W/JK+oQqbUQBBEIRP7du+AtrpNq9LnZ+kf3NBmX8CRKMx+o9t8fwaCIN2DTOmOJdp7l8mBYawBib4zNlhkQt39a4ojmw1FObTIOM7ombSoOOPTAtWV33V3L1uUUkbPIX7JqfUZVCEvHf2DG1iBJEFbw+O78kObsBo6dBimskLkt+jzblA79+CMnknv1v/fd/ftut6/JgopMMx3+jc+U1Zosy+oLmRU7VlJi46ndYnnTpyPn75Wm3mqat9qm0rB6DmEGtmLP387bNCp/joq2jQLgiBGzGBqRK+gjadNpQXqq3+ULx5F8m9L69qfFhlHDe9WB2+HZ7C9E+d6J841PL6DFciMT+B9tFiXc03919GqPSupkXG0yF606L7kNuHoQ4IjEFkDExm9h2lvnq6++Gv12QMQBFPaRnBGTWcNntDa1npRe9TcOoOnMrD2qN62UJt9gRwczhqQWP8OrrsgcHx5kxZzJ85HegayjG8pIRG0LvG0qDhKh26tJ0ruFXs8d0C6beFLe2R7azNPSdOX2VSK6J5DesT2yoE6ZT6SPBfJL2c9upz1yI/Limwf0D2ibbsgn+Y4Jn4dHm77hw8fjh07trS0NCoqKi0tLT4+vtZPnVdxEaPJUiFRPquUlVXK8orK0b0cAX6cvt3bx0aFMIk2Y1GO7Mx1fX6WuaKEEtaF1iXeb85Gq0quu3+t4uuJyOHqtC7x7CH/MZUV6R/ckP+2CUej0yLjGHEjOGNn6R/cqj79szh1Lsk/hBYZ5z1hHj1mUN2MDRl56/Oz9Pm39XmZiEDOmBl4hpfh8V3ZgXWm0gJKWBdqZJxg0a6aMevCmIoAABXmSURBVDtmUak+P8uQf1uXl4kjU2iRcYzYIU3n9dTQ4EgUZnwCMz7BqpRq71025N9WHt8JWy3I6i/R289Y9lhz41TVnpUEFpferT/v4y/xNIbh8d3q03ul2xaSAsPoMYP8/i/NplEaCrKr9qy0yISUsGh61360yDhySMSbtim1Uyy1U6zP9LW6e1f0D26gAmkRvTgjppiklcZHd6pP74WtFlrnWErHGALL2ywuM+RnGUsekALDaJFxvA8X4KgM3f1r2uzz8t82IoWI224x42A7bAatsShHd/8Ve+R/sbmmPXInLXJ7eLNbwBGI9G796d36w2ajNvuC7v411ZXfbVoVtVNszS5XC8YVe9TdPNX28Z1QFlcd9e59SvjfEptErpZkF17NLqRTye2CfNoG8JD/1TlHehPBw+39/fffz5kzJzk5ef369Vu3brXzpg4/dV6lVm7nPTmXmS+Vq80WK1rox2XFtPfryDT56ytM2emqYyUyUSklJIIcGsWMGwpBkOGf++r/Ha8+vZfS4S1Km3D2Ox/CRp3xyUPk0aF2jKGERFA7xpjFZaayQln2BQKLS4uOZw+dzF+wvQ6xPDaD1ix6ZiorNJU+MpYWGEvyCCwutXMMJSyaFtnL9LzIWJKnvnoU8Q3cD+djx2Sw1WKRlhtLHpgqSoz/5JjKipBXOTWil/e4OR6cjvM4BI4ve/BE9uCJEASZRaW6nGu6v6/oH2bhaHRym45eI5JwZDKsVqquHjE8uEnyDyG3CWf0GAzZbBaFWPH7ZlNpATk4nNqhG6n/WNhsNFeWqC7/blVKKSERlLBocptwcrsIkqCti+NRHIHI6DkE2ZFsVUr1j+4YCm5L966xKiRE3yBSQChkMhhK8rS3z0EQDkelk/zbsodNpoR2oQR3JPoF4f5Ndo94Jn3BbcWxneItKeTAMFJgGLVDN3JwOCkwrPnuALYqpaaKEnNFieHxXVNFifl19hjejRbZy2vo5Dr0hDwF6oEgCLJIyvX5WfqCLKTLRQ4Mo4RFk0M6U8OiYavZ05o2LK7YI71KNODp0bjiPElgTAk3uhDnLzGY8osr84srESFMOqVtAK+NgMtmUhF/7M1mNKPoLQ8/spmZmbt374YgaMaMGW+//bYrnzqv4hyrUmqUVFRKlBAEeZNsbUja9qbnfNkjr6JCKJdG8uZrKXQIh4MhG4HJMRbfN1U+IXL8cBQKBEF4EtlGIOgLbpvKiwksLxyRAsE2PJNjqaowFN6z6TXkwDCibyC9az9KeDdXXnxWtdymVVkk5RaZyKqUWnUqi+iZWVhqFj+D8ESiNx9PY0AkImwyEbz9LOLn+ryblDA1SRBCCe3C7DOSxA+2aqrNolLT0wJ9fpZFWm6RlJtFz2wGLck3iBzckShoyxqQSO3Uo2kOCDwLSRDiNSwEyVhpFpUaSx6YhaXmsiJTWaFZ9AzPYEN4okVabpGLYKPeopDA2mociwPbrKaKYuPzQshkMCvEkMlE8OLBJoOh6G99wW2bXm2VSXAEAtE3kBQYRvQLIrC8CSwugeNL5AmIPH9kysGqVpgrnxCYHLOo1KpSWJVSq1phFpVaJOVWmQhHoeKIBNhshCAIT2PCdC8IhyN4++KIFMPje4a8mxa13KaUQhQaSRBC9g8h+gURmN4kfltKaBcSv41ZLraInpkqS3T3r5nKiqxqOZHnTxK0JfoF4elsIk+Ap7PJgWF4BpvA8fW4x7IqpRal1CIpt2lVFpnQWl1lFj8XPikwV5SUzX+P5M3HUegQDgfhcQSOj7G0wKpWkNuEE/2C6DGDvMfNaUZO93UQ/YJYfomsgYkQBFlkQmPJA6TPobrwq/ThHa1KV/HlGKJvEPosWWQii5xv06pa2PSVc3sk0JlBsCJYfWsggag3mkv15FK8QMQIEpN9NToI648hCKKQiV5MGodNJxEJXkxafPf27YP9PPfLasHDj69QKCSTyRAEeXt7P3nyxJVPnVSxWq3PnpdjSwgEAgRBhf8U26plin2r8HSWjcEbzeR70fBUBgNWKUzPHxhoDGOntwlsHzyFhmNyLKKn5uf/4FmBeP9IPJuHpzFxVIbxcTZsteJ8w/FsHoHljaOzCDQGns3Ds7h4NhfPYBux3yqSQyK58x9e/fsPVoUYT2XiWV54pjeOzsKT6LqnpXgqA9euJ8HLF0dj4OgsAo2J9/LBs3kENhdHoRkgCIIg7Y0TxnN/4hgsPJ2NZ3MRDfGCKEKnAXg2D8/mmvAELfpNci0kL3alLSqFIrVGU/jPKxcrlNUkutSu0Gg0lZaV6aGXJ/MYNNVWm83usvpgNuptNQSWV1ZqtTpXvkVvMJQ9L4epLufW8esM+XWG3oIgCIJtVlittKrlNpXcqpLDOpXNqLdWVcJGvU2nIYeEEnzbwBqlzai3ykWwUWfTqKnRcRCJDOvUsE5lUVRBRp3taSlDEGGtUsHlQptGCevUVrWC5B/Cen+mbMs8HAThvX0IbB6OzsbRWQSKNz4qHM/m4r24eCrT+KpqNq3KppLb1HKbSmbVa2GD1qpWQBqlVVNNkCrJvPY2oQQ2P4f1WqtcbNMoqT3eocf/B6kLG/U6ldymlNrUcptBDxf9Y9MqraojsEFn06l5X2xx9f64G9Qe8XQWns3DUel4JsemtZmEEjmFayHTZV2GIvaIp7PwbC4BebCJJN1LERD0pNRT+jcU3qGQ94tTIiw3z1hvnlO+N8OqkttUcptUAZcL5c+fEOSS7Ed/kzp0Zb47ybPKNiBO7ZFj1Hepqowy5tjkGkPbrtWsQLXOrLfAMgvJAJGMeNhkMEsMKgiCKiBIwCFYjarG1J1EIrl+sYcdsF7/MpjWYrFPb+vwUydVLBZLydNSbAmZRIIgqPjJUwiCoIQUtFyB/McfgjrWOPvTrxMUPcxBoeMfAEN6GQTJHH/qhNgxDgoTXvMtahOkFr38p38XyL+Lg8ssECTXQHLNGysDQRAEiSQSjUb74l79S7VKhSPL7ApNJlNZeYXa8vI5M+k1NqvV7rL6YDEZYBi2EygUibU6nSvfYjQYn1dWGgn1GSUQIaofRP2372y3L9qFLrXCUaH4yVNo5BeOK2itkFYKQdLXqOMNcV977pY9dreI4AVxHASRKtzXXnUBY48v4ENQx35KSZm1uEjceeDLchsEKXWQUmd/fYtGLJFqDKZSAx4i+0A+L0481OflaALayXoNh6AardzCea09kiEI6WgjQacwDJktVrPFaoNhq9Vm1FcXP2lUB4yMD13Eww6YRnt5nDWRaK+Mw0+dVKFQKO8OtD9t7fE/xSPec8Nxfi2eW3iVUVJkd69E908Htg0f+mrhlT3Mfn16B3eIQku0KsV/U0luvM9GvfbIeoKdwL8ZFvk/t135lpsZXvG9eoZ36eUufQCNRvmTR3ePM4DN3oAUFtlTu/tQefe/bTt2HtLqb04TZ9feAy5e6eFzuYODg1UqFQRBGo0mKMh+24zDT51XAQAAAACgWeDhTFhJSUnt27dfunTp+vXrHz9+vH///lo/dV6lJnszDplMpgb8DQAAAAAA/AuLxfhP4rhaL8vLy4Nyc3Nhz5GdnR0aGkogEDp06PDgwQOkEIIgJ586LHSdA78d1up07tIf4BaO/vektErmaS0Ar3D24uXSsuee1gLwCtdv3sp/VOhpLQCvcO9+bva9nDpUzM3N9fAacGxsbElJiV0hDMNOPnVYCAAAAABA88LDa8AAAAAAALROgAMGAAAAAMADAAcMAAAAAIAHaPnnAdtRrVKxmKxmlCy0NaBSqxl0OpK2DNBE0Gi1FDL5jdL6ABoanU5PIBIob5LqAdDQGAxGGIJpVGrtl75KazwP2IvdonKotgzYLJanVQDYw2S0rlMOmwV0Oq32iwCNC5Va9yPIwBQ0AAAAAAAeADhgAAAAAAA8AHDAAAAAAAB4AOCAAQAAAADwAMABAwAAAADgAVqRA3748GF4eDiZTO7evfuNGzc8rU6r5saNG127dkXaoqCgACkEDdQUuHXrFg73cpMeaBSPk5ycTKVS27Vrd+nSJaQENIpnKS4u7t69O5lM7tGjx5MnT5DCujVKK3LA33///Zw5c0wm0/jx47du3eppdVo1U6ZMSUtLM5lMU6dOnTx5MlIIGqgpsHz5cuw/QaN4lq1bt/L5fJ1Ot3v37s8//xwpBI3iWSZOnLhr1y6TybRjx46PP/4YKaxjo3j2NKTGJDQ01Gg0wjAsl8sjIyM9rQ4AhmHYarWSSCTkb9BAHufmzZsDBgyA/j2ODAaN4mkGDBhQ88w30CieBX1lYf+uQ6Pk5ua2ohGwUCgkk8kQBHl7e6PzBgDPotFoIiIikL9BA3mc5cuXr1u3DlsCGsWz3L59+/r160wmMyoqCr3/oFE8S69evfLy8iAIevjwYa9evZDCujVKK8qEpdfr0b8tFosHNQGg7NixY/Xq1cjfoIE8y61bt2w2W+/evbGFoFE8i16vr6io0Gg0N27cSE5OPnXqFAQaxdOkpaX16dNHq9XSaLSbN28ihXVrlFY0AqbRXmZxIxJbUc+jyVJcXKxQKEaNGoX8EzSQZ6k5/IVAo3gaEom0Zs0aCILi4+OvXLmCFIJG8SxTp07NysqCYfjq1avownzdGqUVOeDg4GCVSgVBkEajCQoK8rQ6rR2xWPzDDz+sXbsWLQEN5FmuXLnSp08fJAQaDYQGjeJZ2rdvr9Fo7ApBo3iWvLy8qKgoCIJ69eqVk5ODFNatUVqRA46Pj9+2bRsEQWlpaXbzbIBG5n//+9/s2bN/+OEHbFcRNJBnQWNDkL+RQtAonmX8+PH79u2DIOjq1atjxoxBCkGjeJZu3boha8D3799HzxKsY6O0nijo7Ozs0NBQAoHQoUOHmoGFgMYkODgY+xAihaCBmggQxhmDRvEser1+/PjxJBKpT58+IpEIKQSN4lkKCwtjYmJIJFJMTExhYSFSWIdGyc3NbXXnAQMAAAAA4HHy8vJa0RQ0AAAAAABNB+CAAQAAAADwAMABAwAAAADgAYADBgAAAADAAwAHDAAAAACABwAOGAAAAAAADwAcMAAAAAAAHgA4YAAAAAAAPABwwAAAAAAAeADggAEAAAAA8ADAAQMAAAAA4AGAAwYAAAAAwAMABwwAAAAAgAcADhgAAAAAAA8AHDAAAHDA0KFDb926BUHQ1atXJ0yY4Gl1AIAWCHDAAADAAd99993//d//2Wy2hQsXpqamelodAKAFAhwwAABwQHR0dPv27UeOHJmQkBAYGOhpdQCAFgjR0woAAIAmSnJycnx8/J9//ulpRQCAlgkYAQMAAMdkZGT07t37xx9/9LQiAEDLBDhgAADggKKiolu3bl28eDEjI6OiosLT6gAALRDggAEAgAMWLFjwww8/kMnkjRs3zp4929PqAAAtEFxubm50dLSn1QAAAAAAoBWRl5cHRsAAAAAAAHgA4IABAAAAAPAAwAEDAAAAAOABgAMGAAAAAMADAAcMAAAAAIAHAA4YAAAAAAAPABwwAAAAAAAeADhgAAAAAAA8AHDAAAAAAAB4AOCAAQAAAADwAMABAwAAAADgAYADBgAAAADAAwAHDAAAAACABwAOGAAAAAAAD0D0tAIAgHvIy8vztAoAQO2A418BKMABA1oO4NUGaOKAbiIAC5iCBgAAAADAAwAHDAAA6oLNZvO0CgBA8wY4YADAw9y+fXvgwIF0On3evHlCodDT6rhK9+7dPa1CA4LD4bD/TE9P/+qrr5ByFDKZfO7cOWwVOxpbaUBzAzhgAMCTFBQUTJgwYfHixRqNZtmyZUlJSenp6Z5WyiVyc3M9rUIjkZ6efvv27TVr1iD/hP/lxIkTY8eOxfpg+FU8pC+g2QAcMADgSdasWfP1118PHToUj8f7+vru2rXr9u3byEdSqfTdd98lk8mDBw+WyWRIIQ6H27lzJ4fD4XK5x48fv3TpUps2bbBDMRwOd+rUKSaTOXDgQKlU6lzUxo0b27Vrh62uUCiGDx9OJpOHDh2qUChedyUyvEP+/8yZM2QymUgkRkdHX7t2rRFuWmOSnp5+6tSpPXv21Pxo6NChf/7556hRoxpfK0ALITc3FwYAmj/N9ElmsVhardbhR9OnT9+3bx8MwwcOHJg6dSpSCEHQ3LlzzWbzxYsX4+Li1q1bZ7Vaz549SyKR0AumTp1qtVr37ds3c+ZM56IWL15sV33mzJnl5eUwDP/3v//94osvnFwJ/TvgI5FIBw4cgGH4/PnzoaGhbrw5HgT5dT/99NOAAQP0er1dec0rHX5Uk2b6lAIagtzcXFxubi7YvAFoAeTl5TXHJ5lMJptMJocfcbncqqoqPB5vMpn8/PyUSiUEQTgcTq1WM5lM5G+z2UwkEpG/YRhG/qisrPT398fWep2omtV9fX3RcbO/vz+yJv26L0L+GDlypJeX1yeffDJo0CDkGicUlYoLS0VuuHHuo2OIIDyEb1eIw+F++umnS5cu9e7dOzk5GVsOvzq3jL0hdkLgGrPQzfQpBTQEeXl5YB8woMVSkhjiaRVeIexoac1CLy8vjUaDOFQE9J8KhQKPx0MQRCaTdTodegH2YocOz9/f367W60TVrF5VVYU6EgKB4PyLEPbv3z9x4sSRI0dSqdTr16937dr1dVdCEFRYKjr1V9PaC4sbgKvpgCEIunnz5m+//bZkyZI7d+7Exsa6IqqmxwUAnAAcMKDF4tDhNTWGDx9+5MiRKVOmIP+8f//+hAkTioqKIAjy8vKy2Wx4PN5isVCpVNdlqlQqNpttMpm8vb2REtdFeXl5IeNj1+HxeBcvXrTZbPv37x8xYkRFRYWTizuGCHADmlZ4sEPvC0HQrl27IAhat25dYmLirl27fH19a15z7tw5EonUsPoBWjBgTQLQMmimT3Jubq5AIDh//jwMw48ePerSpcuOHTuQjz777LOTJ0/CNRZu0boO/4YgaP78+TAM79u3LyUl5U1FzZw5s6ysDIbhQ4cOxcXFObmSRCKp1WoYhjt37nz69GkYhrErxM0d7E8uKyt7//33rVarXfnp06dpNBry22GwBgx4Q3Jzc4EDBrQQmu+TfP78+bfeeotEIgUEBKSmpqLlEolk0KBBJBLpnXfeqaqqQgpdccC7du2iUCjvv/9+dXX1m4qqqqp67733SCRSly5dHj165OTKcePGUSgUGIazsrIiIyMJBAKJREK9UXPHzpseOnQIiWjDjl5IJNLZs2exVeyoKbb5PqUAtwOCsAAtBxDeglAzSgjQdABPKQAlLy8P7AMGAFoUFArF0yoAAACXAA4YAGhRGAwGT6sAAABcAjhgAAAAAAA8ANiGBGg5gMNWAQBAMwI4YEALAcS2AACA5gWYggYAAAAAwAMABwwAAAAAgAcADhgAAAAAAA8AHDAAAAAAAB4AOGAAAAAAADwAcMAAAAAAAHgA4IABAAAAAPAAwAEDAAAAAOABgAMGAAAAAMADECGQwA8AAAAAgEbn/wG/RpCFHrVrXwAAAABJRU5ErkJggg==;" parent="1" vertex="1">
          <mxGeometry x="190" y="150" width="520" height="390" as="geometry" />
        </mxCell>
        <mxCell id="EHeoqyNh7yzG5rau29Q3-8" value="" style="rounded=0;whiteSpace=wrap;html=1;strokeColor=none;" parent="1" vertex="1">
          <mxGeometry x="259" y="153" width="420" height="20" as="geometry" />
        </mxCell>
        <mxCell id="EHeoqyNh7yzG5rau29Q3-9" value="" style="rounded=0;whiteSpace=wrap;html=1;strokeColor=none;" parent="1" vertex="1">
          <mxGeometry x="259" y="498" width="420" height="33" as="geometry" />
        </mxCell>
        <mxCell id="EHeoqyNh7yzG5rau29Q3-10" value="&lt;font style=&quot;font-size: 18px;&quot;&gt;Reward samples&lt;/font&gt;" style="text;html=1;strokeColor=none;fillColor=none;align=center;verticalAlign=middle;whiteSpace=wrap;rounded=0;" parent="1" vertex="1">
          <mxGeometry x="380" y="490" width="160" height="30" as="geometry" />
        </mxCell>
        <mxCell id="EHeoqyNh7yzG5rau29Q3-11" value="" style="endArrow=none;html=1;rounded=0;fillColor=#FF8000;strokeColor=#FF8000;strokeWidth=3;" parent="1" edge="1">
          <mxGeometry width="50" height="50" relative="1" as="geometry">
            <mxPoint x="540" y="230" as="sourcePoint" />
            <mxPoint x="580" y="230" as="targetPoint" />
          </mxGeometry>
        </mxCell>
        <mxCell id="EHeoqyNh7yzG5rau29Q3-12" value="" style="endArrow=none;html=1;rounded=0;fillColor=#FF8000;strokeColor=#3333FF;strokeWidth=3;" parent="1" edge="1">
          <mxGeometry width="50" height="50" relative="1" as="geometry">
            <mxPoint x="540" y="210" as="sourcePoint" />
            <mxPoint x="580" y="210" as="targetPoint" />
          </mxGeometry>
        </mxCell>
        <mxCell id="EHeoqyNh7yzG5rau29Q3-14" value="KDE" style="text;html=1;strokeColor=none;fillColor=none;align=center;verticalAlign=middle;whiteSpace=wrap;rounded=0;" parent="1" vertex="1">
          <mxGeometry x="570" y="193" width="60" height="30" as="geometry" />
        </mxCell>
        <mxCell id="EHeoqyNh7yzG5rau29Q3-15" value="PMF" style="text;html=1;strokeColor=none;fillColor=none;align=center;verticalAlign=middle;whiteSpace=wrap;rounded=0;" parent="1" vertex="1">
          <mxGeometry x="571" y="217" width="60" height="30" as="geometry" />
        </mxCell>
        <mxCell id="EHeoqyNh7yzG5rau29Q3-16" value="$$\rho_K$$" style="text;html=1;align=center;verticalAlign=middle;resizable=0;points=[];autosize=1;strokeColor=none;fillColor=none;" parent="1" vertex="1">
          <mxGeometry x="582" y="191" width="90" height="30" as="geometry" />
        </mxCell>
        <mxCell id="rqNoK6mZc5TyEjnLcpfI-1" value="" style="rounded=0;whiteSpace=wrap;html=1;strokeColor=none;" vertex="1" parent="1">
          <mxGeometry x="250" y="473" width="450" height="19" as="geometry" />
        </mxCell>
        <mxCell id="rqNoK6mZc5TyEjnLcpfI-2" value="" style="rounded=0;whiteSpace=wrap;html=1;strokeColor=none;direction=south;" vertex="1" parent="1">
          <mxGeometry x="195" y="173" width="50" height="317" as="geometry" />
        </mxCell>
        <mxCell id="rqNoK6mZc5TyEjnLcpfI-5" value="&lt;font style=&quot;font-size: 18px;&quot;&gt;Density&lt;/font&gt;" style="text;html=1;strokeColor=none;fillColor=none;align=center;verticalAlign=middle;whiteSpace=wrap;rounded=0;rotation=-90;" vertex="1" parent="1">
          <mxGeometry x="162.98" y="308.41" width="118.25" height="38.21" as="geometry" />
        </mxCell>
      </root>
    </mxGraphModel>
  </diagram>
</mxfile>
